<svg width="96" height="84" viewBox="0 0 96 84" fill="none" xmlns="http://www.w3.org/2000/svg">
<path fill-rule="evenodd" clip-rule="evenodd" d="M1 6.5C1 3.46243 3.46243 1 6.5 1H30.2929L34.7929 5.5H14.5C9.52944 5.5 5.5 9.52944 5.5 14.5V71.9093C2.93988 71.4391 1 69.1961 1 66.5V6.5ZM5.5 72.9236V74.5C5.5 79.4706 9.52944 83.5 14.5 83.5H86.5C91.4706 83.5 95.5 79.4706 95.5 74.5V26.5C95.5 21.5294 91.4706 17.5 86.5 17.5H84.9236C84.4426 14.3849 81.7498 12 78.5 12H46.2426L39.7426 5.5H36.2071L30.8536 0.146447L30.7071 0H30.5H6.5C2.91015 0 0 2.91015 0 6.5V66.5C0 69.7498 2.38491 72.4426 5.5 72.9236ZM47.2426 13H78.5C81.1961 13 83.439 14.9399 83.9093 17.5H51.7426L47.2426 13ZM47.5 53.5V65.5H53.5V53.5H65.5V47.5H53.5V35.5H47.5V47.5H35.5V53.5H47.5Z" fill="white"/>
</svg>
