<svg width="61" height="100" viewBox="0 0 61 100" fill="none" xmlns="http://www.w3.org/2000/svg">
<path d="M30.5 54.1592C13.683 54.1592 0 67.8347 0 84.6469V96.9122C0 98.6163 1.38423 100 3.089 100H57.911C59.6178 100 61 98.6163 61 96.9122V84.6469C61 67.8347 47.319 54.1592 30.5 54.1592ZM33.7932 60.5571L30.3387 64.798L26.9271 60.5959C28.0929 60.4224 29.2873 60.3326 30.5 60.3326C31.6168 60.3347 32.7172 60.4122 33.7932 60.5571ZM30.3918 79.949L34.8609 93.8245H26.0921L30.3918 79.949ZM6.18003 84.6469C6.18003 74.802 12.064 66.3041 20.5021 62.4857L26.8945 70.3592L19.6222 93.8224H6.18003V84.6469ZM54.822 93.8224H41.3513L33.7891 70.3449L40.2733 62.3857C48.8318 66.1551 54.822 74.7143 54.822 84.6469V93.8224Z" fill="white"/>
<path d="M18.8116 32.8143V38.6816C18.8116 45.1245 24.0545 50.3653 30.5 50.3653C36.9454 50.3653 42.1883 45.1245 42.1883 38.6816V32.8143C46.4758 29.3163 48.9952 24.0653 48.9952 18.4878C48.9952 8.29388 40.6979 0 30.5 0C20.302 0 12.0068 8.29388 12.0068 18.4878C12.0068 24.0653 14.5242 29.3163 18.8116 32.8143ZM30.5 5.54694C37.6375 5.54694 43.4439 11.351 43.4439 18.4878C43.4439 22.7429 41.3472 26.7286 37.8376 29.149C37.0863 29.6673 36.6371 30.5204 36.6371 31.4327V32.6735H24.3608V31.4327C24.3608 30.5204 23.9116 29.6673 23.1603 29.149C19.6487 26.7286 17.5519 22.7429 17.5519 18.4878C17.556 11.3531 23.3624 5.54694 30.5 5.54694ZM36.6392 38.6796C36.6392 42.0633 33.885 44.8163 30.5 44.8163C27.1149 44.8163 24.3608 42.0633 24.3608 38.6796V38.2184H36.6371V38.6796H36.6392Z" fill="white"/>
</svg>
