<svg width="166" height="80" viewBox="0 0 166 80" fill="none" xmlns="http://www.w3.org/2000/svg">
<path d="M92.9412 39.8595C91.4114 38.57 89.4975 37.6826 87.4557 37.2485V28.8859C88.9151 29.6774 89.9008 31.018 89.9776 32.5437C89.9776 34.2801 91.405 35.5824 93.2932 35.5824C95.1814 35.5824 96.6088 34.2737 96.6088 32.499C96.4552 27.5708 92.6339 23.5555 87.4557 22.4V21.9531C87.4557 20.2168 86.1435 18.9145 84.4089 18.9145C82.6743 18.9145 81.3621 20.2232 81.3621 21.9531V22.4C76.1903 23.5555 72.369 27.5836 72.209 32.5629C72.2922 37.472 76.1839 41.5575 81.3621 42.7002V51.5864C79.7299 50.6926 78.757 49.1478 78.8402 47.488V47.4242C78.8402 45.6878 77.4128 44.3855 75.5246 44.3855C73.6364 44.3855 72.209 45.6942 72.209 47.4497C72.2922 52.3588 76.1839 56.4444 81.3621 57.5871V58.0211C81.3621 59.7001 82.7319 61.0598 84.4089 61.0598C86.0859 61.0598 87.4557 59.6937 87.4557 58.0211V57.619C89.4975 57.1849 91.4114 56.2975 92.9412 55.008C95.2774 53.0418 96.6152 50.2777 96.6152 47.4306C96.6088 44.5898 95.271 41.8257 92.9412 39.8595ZM87.4557 43.811C88.4094 44.3345 89.1775 45.1005 89.6063 46.0198C90.4064 47.7434 89.9008 49.7032 88.3262 51.0054C88.0574 51.2289 87.7629 51.414 87.4557 51.58V43.811ZM81.3557 36.2399C79.8963 35.4611 78.9042 34.1141 78.8402 32.5629C78.9362 31.018 79.9155 29.6838 81.3557 28.8922V36.2399Z" fill="white"/>
<path d="M84.4085 7.9729C71.3765 7.9729 59.7334 15.7291 54.7472 27.7369C49.761 39.7447 52.4941 53.4441 61.7049 62.6303C67.8625 68.7714 76.0363 72.0271 84.3765 72.0271C88.5178 72.0271 92.6975 71.2228 96.6916 69.5758C108.732 64.6029 116.508 52.9909 116.508 39.9936C116.496 22.3554 102.088 7.99205 84.4085 7.9729ZM110.095 39.9936C110.076 54.1016 98.5543 65.5923 84.4085 65.6115C73.9816 65.6115 64.6685 59.4065 60.6744 49.799C56.6867 40.1915 58.8693 29.2371 66.2431 21.883C71.1717 16.9676 77.7069 14.3694 84.3829 14.3694C87.6985 14.3694 91.0397 15.0141 94.2401 16.3292C103.873 20.3062 110.095 29.5945 110.095 39.9936Z" fill="white"/>
<path d="M11.4658 15.6907C10.0348 17.1178 10.0348 19.4299 11.4658 20.8571C12.8968 22.2842 15.2151 22.2842 16.6461 20.8571L25.048 12.4776V40.1993C25.048 42.2165 26.6868 43.8509 28.7093 43.8509C30.7319 43.8509 32.3707 42.2165 32.3707 40.1993V12.4776L40.7726 20.8571C42.2036 22.2842 44.5219 22.2842 45.9529 20.8571C47.3838 19.4299 47.3838 17.1178 45.9529 15.6907L31.3075 1.06837C30.62 0.382699 29.6846 0 28.7173 0C27.75 0 26.8147 0.382699 26.1272 1.06837L11.4658 15.6907Z" fill="white"/>
<path d="M136.167 39.5296V67.2513L127.765 58.8718C126.334 57.4447 124.016 57.4447 122.585 58.8718C121.154 60.299 121.154 62.6111 122.585 64.0382L137.238 78.6525C137.926 79.3382 138.861 79.7209 139.828 79.7209C140.796 79.7209 141.731 79.3382 142.419 78.6525L157.072 64.0382C158.503 62.6111 158.503 60.299 157.072 58.8718C155.641 57.4447 153.323 57.4447 151.892 58.8718L143.49 67.2513V39.5296C143.49 37.5124 141.851 35.878 139.828 35.878C137.806 35.878 136.167 37.5124 136.167 39.5296Z" fill="white"/>
</svg>
