<svg width="477" height="316" viewBox="0 0 477 316" fill="none" xmlns="http://www.w3.org/2000/svg">
<g clip-path="url(#clip0)">
<path d="M246.329 31.1743V0C196.598 0 152.242 22.9979 123.289 58.935L147.197 78.9376C170.431 49.8276 206.195 31.1743 246.329 31.1743Z" fill="#162146"/>
<path d="M368.858 125.304L398.734 116.386C380.471 49.3149 319.16 0 246.33 0V31.1743C305.051 31.1743 354.439 71.1052 368.858 125.304Z" fill="#564FF5"/>
<path d="M119.54 158.003C119.54 128.104 129.892 100.62 147.197 78.9376L123.289 58.9351C101.459 86.0347 88.375 120.488 88.375 158.003C88.375 175.017 91.0727 191.39 96.0498 206.745L125.926 197.826C121.786 185.299 119.54 171.914 119.54 158.003Z" fill="#3C4562"/>
<path d="M156.808 247.816L134.774 269.856C163.349 298.372 202.782 316 246.329 316V284.826C211.381 284.832 179.744 270.686 156.808 247.816Z" fill="#CDD1DF"/>
<path d="M125.926 197.826L96.0498 206.745C103.853 230.835 117.274 252.39 134.775 269.856L156.808 247.816C142.915 233.959 132.225 216.891 125.926 197.826Z" fill="#B0B7CC"/>
<path d="M246.33 284.832V316.007C293.924 316.007 336.6 294.952 365.56 261.639L341.645 241.63C318.405 268.109 284.32 284.832 246.33 284.832Z" fill="#EFEEFE"/>
<path d="M398.734 116.386L368.857 125.304C371.636 135.741 373.119 146.697 373.119 158.003C373.119 190.048 361.236 219.306 341.645 241.63L365.559 261.639C389.676 233.898 404.284 197.658 404.284 158.003C404.284 143.593 402.342 129.642 398.734 116.386Z" fill="#9A95F9"/>
<path d="M314.398 15.3949H477" stroke="white" stroke-miterlimit="10"/>
<path d="M402.936 175.76H477" stroke="white" stroke-miterlimit="10"/>
<path d="M317.703 298.986H422.237L452.141 275.84H477" stroke="white" stroke-miterlimit="10"/>
<path d="M149 34H0" stroke="white" stroke-miterlimit="10"/>
<path d="M93.919 116.386H0" stroke="white" stroke-miterlimit="10"/>
<path d="M107.744 233.844H0" stroke="white" stroke-miterlimit="10"/>
<path d="M158.885 289.595H0" stroke="white" stroke-miterlimit="10"/>
<path d="M416.115 29.0552V32.395H414.99V23.8638H418.137C419.07 23.8638 419.801 24.1021 420.328 24.5786C420.859 25.0552 421.125 25.686 421.125 26.4712C421.125 27.2993 420.865 27.938 420.346 28.3872C419.83 28.8325 419.09 29.0552 418.125 29.0552H416.115ZM416.115 28.1353H418.137C418.738 28.1353 419.199 27.9946 419.52 27.7134C419.84 27.4282 420 27.0181 420 26.4829C420 25.9751 419.84 25.5688 419.52 25.2642C419.199 24.9595 418.76 24.8013 418.201 24.7896H416.115V28.1353ZM425.455 27.0278C425.291 27.0005 425.113 26.9868 424.922 26.9868C424.211 26.9868 423.729 27.2896 423.475 27.895V32.395H422.391V26.0552H423.445L423.463 26.7876C423.818 26.2212 424.322 25.938 424.975 25.938C425.186 25.938 425.346 25.9653 425.455 26.02V27.0278ZM427.635 32.395H426.551V26.0552H427.635V32.395ZM426.463 24.3735C426.463 24.1978 426.516 24.0493 426.621 23.9282C426.73 23.8071 426.891 23.7466 427.102 23.7466C427.312 23.7466 427.473 23.8071 427.582 23.9282C427.691 24.0493 427.746 24.1978 427.746 24.3735C427.746 24.5493 427.691 24.6958 427.582 24.813C427.473 24.9302 427.312 24.9888 427.102 24.9888C426.891 24.9888 426.73 24.9302 426.621 24.813C426.516 24.6958 426.463 24.5493 426.463 24.3735ZM431.467 30.9243L433.037 26.0552H434.145L431.871 32.395H431.045L428.748 26.0552H429.855L431.467 30.9243ZM439.008 32.395C438.945 32.27 438.895 32.0474 438.855 31.7271C438.352 32.2505 437.75 32.5122 437.051 32.5122C436.426 32.5122 435.912 32.3364 435.51 31.9849C435.111 31.6294 434.912 31.1802 434.912 30.6372C434.912 29.9771 435.162 29.4653 435.662 29.1021C436.166 28.7349 436.873 28.5513 437.783 28.5513H438.838V28.0532C438.838 27.6743 438.725 27.3735 438.498 27.1509C438.271 26.9243 437.938 26.811 437.496 26.811C437.109 26.811 436.785 26.9087 436.523 27.104C436.262 27.2993 436.131 27.5356 436.131 27.813H435.041C435.041 27.4966 435.152 27.1919 435.375 26.8989C435.602 26.6021 435.906 26.3677 436.289 26.1958C436.676 26.0239 437.1 25.938 437.561 25.938C438.291 25.938 438.863 26.1216 439.277 26.4888C439.691 26.8521 439.906 27.354 439.922 27.9946V30.9126C439.922 31.4946 439.996 31.9575 440.145 32.3013V32.395H439.008ZM437.209 31.5688C437.549 31.5688 437.871 31.481 438.176 31.3052C438.48 31.1294 438.701 30.9009 438.838 30.6196V29.3188H437.988C436.66 29.3188 435.996 29.7075 435.996 30.4849C435.996 30.8247 436.109 31.0903 436.336 31.2817C436.562 31.4731 436.854 31.5688 437.209 31.5688ZM443.092 24.52V26.0552H444.275V26.8931H443.092V30.8247C443.092 31.0786 443.145 31.27 443.25 31.3989C443.355 31.5239 443.535 31.5864 443.789 31.5864C443.914 31.5864 444.086 31.563 444.305 31.5161V32.395C444.02 32.4731 443.742 32.5122 443.473 32.5122C442.988 32.5122 442.623 32.3657 442.377 32.0728C442.131 31.7798 442.008 31.3638 442.008 30.8247V26.8931H440.854V26.0552H442.008V24.52H443.092ZM448.178 32.5122C447.318 32.5122 446.619 32.231 446.08 31.6685C445.541 31.1021 445.271 30.3462 445.271 29.4009V29.2017C445.271 28.5728 445.391 28.0122 445.629 27.52C445.871 27.0239 446.207 26.6372 446.637 26.3599C447.07 26.0786 447.539 25.938 448.043 25.938C448.867 25.938 449.508 26.2095 449.965 26.7524C450.422 27.2954 450.65 28.0728 450.65 29.0845V29.5356H446.355C446.371 30.1606 446.553 30.6665 446.9 31.0532C447.252 31.436 447.697 31.6274 448.236 31.6274C448.619 31.6274 448.943 31.5493 449.209 31.3931C449.475 31.2368 449.707 31.0298 449.906 30.772L450.568 31.2876C450.037 32.104 449.24 32.5122 448.178 32.5122ZM448.043 26.8286C447.605 26.8286 447.238 26.9888 446.941 27.3091C446.645 27.6255 446.461 28.0708 446.391 28.645H449.566V28.563C449.535 28.0122 449.387 27.5864 449.121 27.2856C448.855 26.981 448.496 26.8286 448.043 26.8286ZM457.57 28.5923C456.605 28.3149 455.902 27.9751 455.461 27.5728C455.023 27.1665 454.805 26.6665 454.805 26.0728C454.805 25.4009 455.072 24.8462 455.607 24.4087C456.146 23.9673 456.846 23.7466 457.705 23.7466C458.291 23.7466 458.812 23.8599 459.27 24.0864C459.73 24.313 460.086 24.6255 460.336 25.0239C460.59 25.4224 460.717 25.8579 460.717 26.3306H459.586C459.586 25.8149 459.422 25.4106 459.094 25.1177C458.766 24.8208 458.303 24.6724 457.705 24.6724C457.15 24.6724 456.717 24.7954 456.404 25.0415C456.096 25.2837 455.941 25.6216 455.941 26.0552C455.941 26.4028 456.088 26.6978 456.381 26.9399C456.678 27.1782 457.18 27.397 457.887 27.5962C458.598 27.7954 459.152 28.0161 459.551 28.2583C459.953 28.4966 460.25 28.7759 460.441 29.0962C460.637 29.4165 460.734 29.7935 460.734 30.2271C460.734 30.9185 460.465 31.4731 459.926 31.8911C459.387 32.3052 458.666 32.5122 457.764 32.5122C457.178 32.5122 456.631 32.4009 456.123 32.1782C455.615 31.9517 455.223 31.6431 454.945 31.2524C454.672 30.8618 454.535 30.4185 454.535 29.9224H455.666C455.666 30.438 455.855 30.8462 456.234 31.147C456.617 31.4438 457.127 31.5923 457.764 31.5923C458.357 31.5923 458.812 31.4712 459.129 31.229C459.445 30.9868 459.604 30.6567 459.604 30.2388C459.604 29.8208 459.457 29.4985 459.164 29.272C458.871 29.0415 458.34 28.8149 457.57 28.5923ZM465.926 32.395C465.863 32.27 465.812 32.0474 465.773 31.7271C465.27 32.2505 464.668 32.5122 463.969 32.5122C463.344 32.5122 462.83 32.3364 462.428 31.9849C462.029 31.6294 461.83 31.1802 461.83 30.6372C461.83 29.9771 462.08 29.4653 462.58 29.1021C463.084 28.7349 463.791 28.5513 464.701 28.5513H465.756V28.0532C465.756 27.6743 465.643 27.3735 465.416 27.1509C465.189 26.9243 464.855 26.811 464.414 26.811C464.027 26.811 463.703 26.9087 463.441 27.104C463.18 27.2993 463.049 27.5356 463.049 27.813H461.959C461.959 27.4966 462.07 27.1919 462.293 26.8989C462.52 26.6021 462.824 26.3677 463.207 26.1958C463.594 26.0239 464.018 25.938 464.479 25.938C465.209 25.938 465.781 26.1216 466.195 26.4888C466.609 26.8521 466.824 27.354 466.84 27.9946V30.9126C466.84 31.4946 466.914 31.9575 467.062 32.3013V32.395H465.926ZM464.127 31.5688C464.467 31.5688 464.789 31.481 465.094 31.3052C465.398 31.1294 465.619 30.9009 465.756 30.6196V29.3188H464.906C463.578 29.3188 462.914 29.7075 462.914 30.4849C462.914 30.8247 463.027 31.0903 463.254 31.2817C463.48 31.4731 463.771 31.5688 464.127 31.5688ZM469.717 32.395H468.633V23.395H469.717V32.395ZM474.088 32.5122C473.229 32.5122 472.529 32.231 471.99 31.6685C471.451 31.1021 471.182 30.3462 471.182 29.4009V29.2017C471.182 28.5728 471.301 28.0122 471.539 27.52C471.781 27.0239 472.117 26.6372 472.547 26.3599C472.98 26.0786 473.449 25.938 473.953 25.938C474.777 25.938 475.418 26.2095 475.875 26.7524C476.332 27.2954 476.561 28.0728 476.561 29.0845V29.5356H472.266C472.281 30.1606 472.463 30.6665 472.811 31.0532C473.162 31.436 473.607 31.6274 474.146 31.6274C474.529 31.6274 474.854 31.5493 475.119 31.3931C475.385 31.2368 475.617 31.0298 475.816 30.772L476.479 31.2876C475.947 32.104 475.15 32.5122 474.088 32.5122ZM473.953 26.8286C473.516 26.8286 473.148 26.9888 472.852 27.3091C472.555 27.6255 472.371 28.0708 472.301 28.645H475.477V28.563C475.445 28.0122 475.297 27.5864 475.031 27.2856C474.766 26.981 474.406 26.8286 473.953 26.8286Z" fill="white"/>
<path d="M4.11914 47.5488H2.11523V51H0.984375V42.4688H3.80859C4.76953 42.4688 5.50781 42.6875 6.02344 43.125C6.54297 43.5625 6.80273 44.1992 6.80273 45.0352C6.80273 45.5664 6.6582 46.0293 6.36914 46.4238C6.08398 46.8184 5.68555 47.1133 5.17383 47.3086L7.17773 50.9297V51H5.9707L4.11914 47.5488ZM2.11523 46.6289H3.84375C4.40234 46.6289 4.8457 46.4844 5.17383 46.1953C5.50586 45.9062 5.67188 45.5195 5.67188 45.0352C5.67188 44.5078 5.51367 44.1035 5.19727 43.8223C4.88477 43.541 4.43164 43.3984 3.83789 43.3945H2.11523V46.6289ZM10.8457 51.1172C9.98633 51.1172 9.28711 50.8359 8.74805 50.2734C8.20898 49.707 7.93945 48.9512 7.93945 48.0059V47.8066C7.93945 47.1777 8.05859 46.6172 8.29688 46.125C8.53906 45.6289 8.875 45.2422 9.30469 44.9648C9.73828 44.6836 10.207 44.543 10.7109 44.543C11.5352 44.543 12.1758 44.8145 12.6328 45.3574C13.0898 45.9004 13.3184 46.6777 13.3184 47.6895V48.1406H9.02344C9.03906 48.7656 9.2207 49.2715 9.56836 49.6582C9.91992 50.041 10.3652 50.2324 10.9043 50.2324C11.2871 50.2324 11.6113 50.1543 11.877 49.998C12.1426 49.8418 12.375 49.6348 12.5742 49.377L13.2363 49.8926C12.7051 50.709 11.9082 51.1172 10.8457 51.1172ZM10.7109 45.4336C10.2734 45.4336 9.90625 45.5938 9.60938 45.9141C9.3125 46.2305 9.12891 46.6758 9.05859 47.25H12.2344V47.168C12.2031 46.6172 12.0547 46.1914 11.7891 45.8906C11.5234 45.5859 11.1641 45.4336 10.7109 45.4336ZM18.2695 49.3184C18.2695 49.0254 18.1582 48.7988 17.9355 48.6387C17.7168 48.4746 17.332 48.334 16.7812 48.2168C16.2344 48.0996 15.7988 47.959 15.4746 47.7949C15.1543 47.6309 14.916 47.4355 14.7598 47.209C14.6074 46.9824 14.5312 46.7129 14.5312 46.4004C14.5312 45.8809 14.75 45.4414 15.1875 45.082C15.6289 44.7227 16.1914 44.543 16.875 44.543C17.5938 44.543 18.1758 44.7285 18.6211 45.0996C19.0703 45.4707 19.2949 45.9453 19.2949 46.5234H18.2051C18.2051 46.2266 18.0781 45.9707 17.8242 45.7559C17.5742 45.541 17.2578 45.4336 16.875 45.4336C16.4805 45.4336 16.1719 45.5195 15.9492 45.6914C15.7266 45.8633 15.6152 46.0879 15.6152 46.3652C15.6152 46.627 15.7188 46.8242 15.9258 46.957C16.1328 47.0898 16.5059 47.2168 17.0449 47.3379C17.5879 47.459 18.0273 47.6035 18.3633 47.7715C18.6992 47.9395 18.9473 48.1426 19.1074 48.3809C19.2715 48.6152 19.3535 48.9023 19.3535 49.2422C19.3535 49.8086 19.127 50.2637 18.6738 50.6074C18.2207 50.9473 17.6328 51.1172 16.9102 51.1172C16.4023 51.1172 15.9531 51.0273 15.5625 50.8477C15.1719 50.668 14.8652 50.418 14.6426 50.0977C14.4238 49.7734 14.3145 49.4238 14.3145 49.0488H15.3984C15.418 49.4121 15.5625 49.7012 15.832 49.916C16.1055 50.127 16.4648 50.2324 16.9102 50.2324C17.3203 50.2324 17.6484 50.1504 17.8945 49.9863C18.1445 49.8184 18.2695 49.5957 18.2695 49.3184ZM23.3965 51.1172C22.5371 51.1172 21.8379 50.8359 21.2988 50.2734C20.7598 49.707 20.4902 48.9512 20.4902 48.0059V47.8066C20.4902 47.1777 20.6094 46.6172 20.8477 46.125C21.0898 45.6289 21.4258 45.2422 21.8555 44.9648C22.2891 44.6836 22.7578 44.543 23.2617 44.543C24.0859 44.543 24.7266 44.8145 25.1836 45.3574C25.6406 45.9004 25.8691 46.6777 25.8691 47.6895V48.1406H21.5742C21.5898 48.7656 21.7715 49.2715 22.1191 49.6582C22.4707 50.041 22.916 50.2324 23.4551 50.2324C23.8379 50.2324 24.1621 50.1543 24.4277 49.998C24.6934 49.8418 24.9258 49.6348 25.125 49.377L25.7871 49.8926C25.2559 50.709 24.459 51.1172 23.3965 51.1172ZM23.2617 45.4336C22.8242 45.4336 22.457 45.5938 22.1602 45.9141C21.8633 46.2305 21.6797 46.6758 21.6094 47.25H24.7852V47.168C24.7539 46.6172 24.6055 46.1914 24.3398 45.8906C24.0742 45.5859 23.7148 45.4336 23.2617 45.4336ZM30.1934 45.6328C30.0293 45.6055 29.8516 45.5918 29.6602 45.5918C28.9492 45.5918 28.4668 45.8945 28.2129 46.5V51H27.1289V44.6602H28.1836L28.2012 45.3926C28.5566 44.8262 29.0605 44.543 29.7129 44.543C29.9238 44.543 30.084 44.5703 30.1934 44.625V45.6328ZM33.3926 49.5293L34.9629 44.6602H36.0703L33.7969 51H32.9707L30.6738 44.6602H31.7812L33.3926 49.5293ZM39.6621 51.1172C38.8027 51.1172 38.1035 50.8359 37.5645 50.2734C37.0254 49.707 36.7559 48.9512 36.7559 48.0059V47.8066C36.7559 47.1777 36.875 46.6172 37.1133 46.125C37.3555 45.6289 37.6914 45.2422 38.1211 44.9648C38.5547 44.6836 39.0234 44.543 39.5273 44.543C40.3516 44.543 40.9922 44.8145 41.4492 45.3574C41.9062 45.9004 42.1348 46.6777 42.1348 47.6895V48.1406H37.8398C37.8555 48.7656 38.0371 49.2715 38.3848 49.6582C38.7363 50.041 39.1816 50.2324 39.7207 50.2324C40.1035 50.2324 40.4277 50.1543 40.6934 49.998C40.959 49.8418 41.1914 49.6348 41.3906 49.377L42.0527 49.8926C41.5215 50.709 40.7246 51.1172 39.6621 51.1172ZM39.5273 45.4336C39.0898 45.4336 38.7227 45.5938 38.4258 45.9141C38.1289 46.2305 37.9453 46.6758 37.875 47.25H41.0508V47.168C41.0195 46.6172 40.8711 46.1914 40.6055 45.8906C40.3398 45.5859 39.9805 45.4336 39.5273 45.4336Z" fill="white"/>
<path d="M5.69531 247.232H2.11523V251H0.990234V242.469H6.27539V243.395H2.11523V246.312H5.69531V247.232ZM7.03711 247.771C7.03711 247.15 7.1582 246.592 7.40039 246.096C7.64648 245.6 7.98633 245.217 8.41992 244.947C8.85742 244.678 9.35547 244.543 9.91406 244.543C10.7773 244.543 11.4746 244.842 12.0059 245.439C12.541 246.037 12.8086 246.832 12.8086 247.824V247.9C12.8086 248.518 12.6895 249.072 12.4512 249.564C12.2168 250.053 11.8789 250.434 11.4375 250.707C11 250.98 10.4961 251.117 9.92578 251.117C9.06641 251.117 8.36914 250.818 7.83398 250.221C7.30273 249.623 7.03711 248.832 7.03711 247.848V247.771ZM8.12695 247.9C8.12695 248.604 8.28906 249.168 8.61328 249.594C8.94141 250.02 9.37891 250.232 9.92578 250.232C10.4766 250.232 10.9141 250.018 11.2383 249.588C11.5625 249.154 11.7246 248.549 11.7246 247.771C11.7246 247.076 11.5586 246.514 11.2266 246.084C10.8984 245.65 10.4609 245.434 9.91406 245.434C9.37891 245.434 8.94727 245.646 8.61914 246.072C8.29102 246.498 8.12695 247.107 8.12695 247.9ZM18.082 250.373C17.6602 250.869 17.041 251.117 16.2246 251.117C15.5488 251.117 15.0332 250.922 14.6777 250.531C14.3262 250.137 14.1484 249.555 14.1445 248.785V244.66H15.2285V248.756C15.2285 249.717 15.6191 250.197 16.4004 250.197C17.2285 250.197 17.7793 249.889 18.0527 249.271V244.66H19.1367V251H18.1055L18.082 250.373ZM21.8145 244.66L21.8496 245.457C22.334 244.848 22.9668 244.543 23.748 244.543C25.0879 244.543 25.7637 245.299 25.7754 246.811V251H24.6914V246.805C24.6875 246.348 24.582 246.01 24.375 245.791C24.1719 245.572 23.8535 245.463 23.4199 245.463C23.0684 245.463 22.7598 245.557 22.4941 245.744C22.2285 245.932 22.0215 246.178 21.873 246.482V251H20.7891V244.66H21.8145ZM27.1465 247.777C27.1465 246.805 27.377 246.023 27.8379 245.434C28.2988 244.84 28.9023 244.543 29.6484 244.543C30.3906 244.543 30.9785 244.797 31.4121 245.305V242H32.4961V251H31.5L31.4473 250.32C31.0137 250.852 30.4102 251.117 29.6367 251.117C28.9023 251.117 28.3027 250.816 27.8379 250.215C27.377 249.613 27.1465 248.828 27.1465 247.859V247.777ZM28.2305 247.9C28.2305 248.619 28.3789 249.182 28.6758 249.588C28.9727 249.994 29.3828 250.197 29.9062 250.197C30.5938 250.197 31.0957 249.889 31.4121 249.271V246.359C31.0879 245.762 30.5898 245.463 29.918 245.463C29.3867 245.463 28.9727 245.668 28.6758 246.078C28.3789 246.488 28.2305 247.096 28.2305 247.9ZM35.3613 251H34.2773V244.66H35.3613V251ZM34.1895 242.979C34.1895 242.803 34.2422 242.654 34.3477 242.533C34.457 242.412 34.6172 242.352 34.8281 242.352C35.0391 242.352 35.1992 242.412 35.3086 242.533C35.418 242.654 35.4727 242.803 35.4727 242.979C35.4727 243.154 35.418 243.301 35.3086 243.418C35.1992 243.535 35.0391 243.594 34.8281 243.594C34.6172 243.594 34.457 243.535 34.3477 243.418C34.2422 243.301 34.1895 243.154 34.1895 242.979ZM38.127 244.66L38.1621 245.457C38.6465 244.848 39.2793 244.543 40.0605 244.543C41.4004 244.543 42.0762 245.299 42.0879 246.811V251H41.0039V246.805C41 246.348 40.8945 246.01 40.6875 245.791C40.4844 245.572 40.166 245.463 39.7324 245.463C39.3809 245.463 39.0723 245.557 38.8066 245.744C38.541 245.932 38.334 246.178 38.1855 246.482V251H37.1016V244.66H38.127ZM43.4648 247.777C43.4648 246.789 43.6934 246.004 44.1504 245.422C44.6074 244.836 45.2129 244.543 45.9668 244.543C46.7402 244.543 47.3438 244.816 47.7773 245.363L47.8301 244.66H48.8203V250.848C48.8203 251.668 48.5762 252.314 48.0879 252.787C47.6035 253.26 46.9512 253.496 46.1309 253.496C45.6738 253.496 45.2266 253.398 44.7891 253.203C44.3516 253.008 44.0176 252.74 43.7871 252.4L44.3496 251.75C44.8145 252.324 45.3828 252.611 46.0547 252.611C46.582 252.611 46.9922 252.463 47.2852 252.166C47.582 251.869 47.7305 251.451 47.7305 250.912V250.367C47.2969 250.867 46.7051 251.117 45.9551 251.117C45.2129 251.117 44.6113 250.818 44.1504 250.221C43.6934 249.623 43.4648 248.809 43.4648 247.777ZM44.5547 247.9C44.5547 248.615 44.7012 249.178 44.9941 249.588C45.2871 249.994 45.6973 250.197 46.2246 250.197C46.9082 250.197 47.4102 249.887 47.7305 249.266V246.371C47.3984 245.766 46.9004 245.463 46.2363 245.463C45.709 245.463 45.2969 245.668 45 246.078C44.7031 246.488 44.5547 247.096 44.5547 247.9ZM59.2676 243.395H56.5254V251H55.4062V243.395H52.6699V242.469H59.2676V243.395ZM62.4082 251.117C61.5488 251.117 60.8496 250.836 60.3105 250.273C59.7715 249.707 59.502 248.951 59.502 248.006V247.807C59.502 247.178 59.6211 246.617 59.8594 246.125C60.1016 245.629 60.4375 245.242 60.8672 244.965C61.3008 244.684 61.7695 244.543 62.2734 244.543C63.0977 244.543 63.7383 244.814 64.1953 245.357C64.6523 245.9 64.8809 246.678 64.8809 247.689V248.141H60.5859C60.6016 248.766 60.7832 249.271 61.1309 249.658C61.4824 250.041 61.9277 250.232 62.4668 250.232C62.8496 250.232 63.1738 250.154 63.4395 249.998C63.7051 249.842 63.9375 249.635 64.1367 249.377L64.7988 249.893C64.2676 250.709 63.4707 251.117 62.4082 251.117ZM62.2734 245.434C61.8359 245.434 61.4688 245.594 61.1719 245.914C60.875 246.23 60.6914 246.676 60.6211 247.25H63.7969V247.168C63.7656 246.617 63.6172 246.191 63.3516 245.891C63.0859 245.586 62.7266 245.434 62.2734 245.434ZM70.0547 251C69.9922 250.875 69.9414 250.652 69.9023 250.332C69.3984 250.855 68.7969 251.117 68.0977 251.117C67.4727 251.117 66.959 250.941 66.5566 250.59C66.1582 250.234 65.959 249.785 65.959 249.242C65.959 248.582 66.209 248.07 66.709 247.707C67.2129 247.34 67.9199 247.156 68.8301 247.156H69.8848V246.658C69.8848 246.279 69.7715 245.979 69.5449 245.756C69.3184 245.529 68.9844 245.416 68.543 245.416C68.1562 245.416 67.832 245.514 67.5703 245.709C67.3086 245.904 67.1777 246.141 67.1777 246.418H66.0879C66.0879 246.102 66.1992 245.797 66.4219 245.504C66.6484 245.207 66.9531 244.973 67.3359 244.801C67.7227 244.629 68.1465 244.543 68.6074 244.543C69.3379 244.543 69.9102 244.727 70.3242 245.094C70.7383 245.457 70.9531 245.959 70.9688 246.6V249.518C70.9688 250.1 71.043 250.562 71.1914 250.906V251H70.0547ZM68.2559 250.174C68.5957 250.174 68.918 250.086 69.2227 249.91C69.5273 249.734 69.748 249.506 69.8848 249.225V247.924H69.0352C67.707 247.924 67.043 248.312 67.043 249.09C67.043 249.43 67.1562 249.695 67.3828 249.887C67.6094 250.078 67.9004 250.174 68.2559 250.174ZM73.6875 244.66L73.7168 245.363C74.1816 244.816 74.8086 244.543 75.5977 244.543C76.4844 244.543 77.0879 244.883 77.4082 245.562C77.6191 245.258 77.8926 245.012 78.2285 244.824C78.5684 244.637 78.9688 244.543 79.4297 244.543C80.8203 244.543 81.5273 245.279 81.5508 246.752V251H80.4668V246.816C80.4668 246.363 80.3633 246.025 80.1562 245.803C79.9492 245.576 79.6016 245.463 79.1133 245.463C78.7109 245.463 78.377 245.584 78.1113 245.826C77.8457 246.064 77.6914 246.387 77.6484 246.793V251H76.5586V246.846C76.5586 245.924 76.1074 245.463 75.2051 245.463C74.4941 245.463 74.0078 245.766 73.7461 246.371V251H72.6621V244.66H73.6875Z" fill="white"/>
<path d="M7.55273 303.01C7.55273 303.846 7.41211 304.576 7.13086 305.201C6.84961 305.822 6.45117 306.297 5.93555 306.625C5.41992 306.953 4.81836 307.117 4.13086 307.117C3.45898 307.117 2.86328 306.953 2.34375 306.625C1.82422 306.293 1.41992 305.822 1.13086 305.213C0.845703 304.6 0.699219 303.891 0.691406 303.086V302.471C0.691406 301.65 0.833984 300.926 1.11914 300.297C1.4043 299.668 1.80664 299.188 2.32617 298.855C2.84961 298.52 3.44727 298.352 4.11914 298.352C4.80273 298.352 5.4043 298.518 5.92383 298.85C6.44727 299.178 6.84961 299.656 7.13086 300.285C7.41211 300.91 7.55273 301.639 7.55273 302.471V303.01ZM6.43359 302.459C6.43359 301.447 6.23047 300.672 5.82422 300.133C5.41797 299.59 4.84961 299.318 4.11914 299.318C3.4082 299.318 2.84766 299.59 2.4375 300.133C2.03125 300.672 1.82227 301.422 1.81055 302.383V303.01C1.81055 303.99 2.01562 304.762 2.42578 305.324C2.83984 305.883 3.4082 306.162 4.13086 306.162C4.85742 306.162 5.41992 305.898 5.81836 305.371C6.2168 304.84 6.42188 304.08 6.43359 303.092V302.459ZM14.4258 303.9C14.4258 304.865 14.2051 305.643 13.7637 306.232C13.3223 306.822 12.7246 307.117 11.9707 307.117C11.2012 307.117 10.5957 306.873 10.1543 306.385V309.438H9.07031V300.66H10.0605L10.1133 301.363C10.5547 300.816 11.168 300.543 11.9531 300.543C12.7148 300.543 13.3164 300.83 13.7578 301.404C14.2031 301.979 14.4258 302.777 14.4258 303.801V303.9ZM13.3418 303.777C13.3418 303.062 13.1895 302.498 12.8848 302.084C12.5801 301.67 12.1621 301.463 11.6309 301.463C10.9746 301.463 10.4824 301.754 10.1543 302.336V305.365C10.4785 305.943 10.9746 306.232 11.6426 306.232C12.1621 306.232 12.5742 306.027 12.8789 305.617C13.1875 305.203 13.3418 304.59 13.3418 303.777ZM18.4395 307.117C17.5801 307.117 16.8809 306.836 16.3418 306.273C15.8027 305.707 15.5332 304.951 15.5332 304.006V303.807C15.5332 303.178 15.6523 302.617 15.8906 302.125C16.1328 301.629 16.4688 301.242 16.8984 300.965C17.332 300.684 17.8008 300.543 18.3047 300.543C19.1289 300.543 19.7695 300.814 20.2266 301.357C20.6836 301.9 20.9121 302.678 20.9121 303.689V304.141H16.6172C16.6328 304.766 16.8145 305.271 17.1621 305.658C17.5137 306.041 17.959 306.232 18.498 306.232C18.8809 306.232 19.2051 306.154 19.4707 305.998C19.7363 305.842 19.9688 305.635 20.168 305.377L20.8301 305.893C20.2988 306.709 19.502 307.117 18.4395 307.117ZM18.3047 301.434C17.8672 301.434 17.5 301.594 17.2031 301.914C16.9062 302.23 16.7227 302.676 16.6523 303.25H19.8281V303.168C19.7969 302.617 19.6484 302.191 19.3828 301.891C19.1172 301.586 18.7578 301.434 18.3047 301.434ZM25.2363 301.633C25.0723 301.605 24.8945 301.592 24.7031 301.592C23.9922 301.592 23.5098 301.895 23.2559 302.5V307H22.1719V300.66H23.2266L23.2441 301.393C23.5996 300.826 24.1035 300.543 24.7559 300.543C24.9668 300.543 25.127 300.57 25.2363 300.625V301.633ZM29.918 307C29.8555 306.875 29.8047 306.652 29.7656 306.332C29.2617 306.855 28.6602 307.117 27.9609 307.117C27.3359 307.117 26.8223 306.941 26.4199 306.59C26.0215 306.234 25.8223 305.785 25.8223 305.242C25.8223 304.582 26.0723 304.07 26.5723 303.707C27.0762 303.34 27.7832 303.156 28.6934 303.156H29.748V302.658C29.748 302.279 29.6348 301.979 29.4082 301.756C29.1816 301.529 28.8477 301.416 28.4062 301.416C28.0195 301.416 27.6953 301.514 27.4336 301.709C27.1719 301.904 27.041 302.141 27.041 302.418H25.9512C25.9512 302.102 26.0625 301.797 26.2852 301.504C26.5117 301.207 26.8164 300.973 27.1992 300.801C27.5859 300.629 28.0098 300.543 28.4707 300.543C29.2012 300.543 29.7734 300.727 30.1875 301.094C30.6016 301.457 30.8164 301.959 30.832 302.6V305.518C30.832 306.1 30.9062 306.562 31.0547 306.906V307H29.918ZM28.1191 306.174C28.459 306.174 28.7812 306.086 29.0859 305.91C29.3906 305.734 29.6113 305.506 29.748 305.225V303.924H28.8984C27.5703 303.924 26.9062 304.312 26.9062 305.09C26.9062 305.43 27.0195 305.695 27.2461 305.887C27.4727 306.078 27.7637 306.174 28.1191 306.174ZM34.002 299.125V300.66H35.1855V301.498H34.002V305.43C34.002 305.684 34.0547 305.875 34.1602 306.004C34.2656 306.129 34.4453 306.191 34.6992 306.191C34.8242 306.191 34.9961 306.168 35.2148 306.121V307C34.9297 307.078 34.6523 307.117 34.3828 307.117C33.8984 307.117 33.5332 306.971 33.2871 306.678C33.041 306.385 32.918 305.969 32.918 305.43V301.498H31.7637V300.66H32.918V299.125H34.002ZM37.6348 307H36.5508V300.66H37.6348V307ZM36.4629 298.979C36.4629 298.803 36.5156 298.654 36.6211 298.533C36.7305 298.412 36.8906 298.352 37.1016 298.352C37.3125 298.352 37.4727 298.412 37.582 298.533C37.6914 298.654 37.7461 298.803 37.7461 298.979C37.7461 299.154 37.6914 299.301 37.582 299.418C37.4727 299.535 37.3125 299.594 37.1016 299.594C36.8906 299.594 36.7305 299.535 36.6211 299.418C36.5156 299.301 36.4629 299.154 36.4629 298.979ZM39.0879 303.771C39.0879 303.15 39.209 302.592 39.4512 302.096C39.6973 301.6 40.0371 301.217 40.4707 300.947C40.9082 300.678 41.4062 300.543 41.9648 300.543C42.8281 300.543 43.5254 300.842 44.0566 301.439C44.5918 302.037 44.8594 302.832 44.8594 303.824V303.9C44.8594 304.518 44.7402 305.072 44.502 305.564C44.2676 306.053 43.9297 306.434 43.4883 306.707C43.0508 306.98 42.5469 307.117 41.9766 307.117C41.1172 307.117 40.4199 306.818 39.8848 306.221C39.3535 305.623 39.0879 304.832 39.0879 303.848V303.771ZM40.1777 303.9C40.1777 304.604 40.3398 305.168 40.6641 305.594C40.9922 306.02 41.4297 306.232 41.9766 306.232C42.5273 306.232 42.9648 306.018 43.2891 305.588C43.6133 305.154 43.7754 304.549 43.7754 303.771C43.7754 303.076 43.6094 302.514 43.2773 302.084C42.9492 301.65 42.5117 301.434 41.9648 301.434C41.4297 301.434 40.998 301.646 40.6699 302.072C40.3418 302.498 40.1777 303.107 40.1777 303.9ZM47.2441 300.66L47.2793 301.457C47.7637 300.848 48.3965 300.543 49.1777 300.543C50.5176 300.543 51.1934 301.299 51.2051 302.811V307H50.1211V302.805C50.1172 302.348 50.0117 302.01 49.8047 301.791C49.6016 301.572 49.2832 301.463 48.8496 301.463C48.498 301.463 48.1895 301.557 47.9238 301.744C47.6582 301.932 47.4512 302.178 47.3027 302.482V307H46.2188V300.66H47.2441ZM56.5312 305.318C56.5312 305.025 56.4199 304.799 56.1973 304.639C55.9785 304.475 55.5938 304.334 55.043 304.217C54.4961 304.1 54.0605 303.959 53.7363 303.795C53.416 303.631 53.1777 303.436 53.0215 303.209C52.8691 302.982 52.793 302.713 52.793 302.4C52.793 301.881 53.0117 301.441 53.4492 301.082C53.8906 300.723 54.4531 300.543 55.1367 300.543C55.8555 300.543 56.4375 300.729 56.8828 301.1C57.332 301.471 57.5566 301.945 57.5566 302.523H56.4668C56.4668 302.227 56.3398 301.971 56.0859 301.756C55.8359 301.541 55.5195 301.434 55.1367 301.434C54.7422 301.434 54.4336 301.52 54.2109 301.691C53.9883 301.863 53.877 302.088 53.877 302.365C53.877 302.627 53.9805 302.824 54.1875 302.957C54.3945 303.09 54.7676 303.217 55.3066 303.338C55.8496 303.459 56.2891 303.604 56.625 303.771C56.9609 303.939 57.209 304.143 57.3691 304.381C57.5332 304.615 57.6152 304.902 57.6152 305.242C57.6152 305.809 57.3887 306.264 56.9355 306.607C56.4824 306.947 55.8945 307.117 55.1719 307.117C54.6641 307.117 54.2148 307.027 53.8242 306.848C53.4336 306.668 53.127 306.418 52.9043 306.098C52.6855 305.773 52.5762 305.424 52.5762 305.049H53.6602C53.6797 305.412 53.8242 305.701 54.0938 305.916C54.3672 306.127 54.7266 306.232 55.1719 306.232C55.582 306.232 55.9102 306.15 56.1562 305.986C56.4062 305.818 56.5312 305.596 56.5312 305.318Z" fill="white"/>
<path d="M5.70117 133.159H2.12695L1.32422 135.386H0.164062L3.42188 126.854H4.40625L7.66992 135.386H6.51562L5.70117 133.159ZM2.4668 132.233H5.36719L3.91406 128.243L2.4668 132.233ZM9.82617 135.386H8.74219V126.386H9.82617V135.386ZM16.9219 132.286C16.9219 133.251 16.7012 134.028 16.2598 134.618C15.8184 135.208 15.2207 135.503 14.4668 135.503C13.6973 135.503 13.0918 135.259 12.6504 134.771V137.823H11.5664V129.046H12.5566L12.6094 129.749C13.0508 129.202 13.6641 128.929 14.4492 128.929C15.2109 128.929 15.8125 129.216 16.2539 129.79C16.6992 130.364 16.9219 131.163 16.9219 132.187V132.286ZM15.8379 132.163C15.8379 131.448 15.6855 130.884 15.3809 130.47C15.0762 130.056 14.6582 129.849 14.127 129.849C13.4707 129.849 12.9785 130.14 12.6504 130.722V133.751C12.9746 134.329 13.4707 134.618 14.1387 134.618C14.6582 134.618 15.0703 134.413 15.375 134.003C15.6836 133.589 15.8379 132.976 15.8379 132.163ZM19.3887 129.813C19.8691 129.224 20.4941 128.929 21.2637 128.929C22.6035 128.929 23.2793 129.685 23.291 131.196V135.386H22.207V131.19C22.2031 130.733 22.0977 130.396 21.8906 130.177C21.6875 129.958 21.3691 129.849 20.9355 129.849C20.584 129.849 20.2754 129.942 20.0098 130.13C19.7441 130.317 19.5371 130.563 19.3887 130.868V135.386H18.3047V126.386H19.3887V129.813ZM28.6055 133.704C28.6055 133.411 28.4941 133.185 28.2715 133.024C28.0527 132.86 27.668 132.72 27.1172 132.603C26.5703 132.485 26.1348 132.345 25.8105 132.181C25.4902 132.017 25.252 131.821 25.0957 131.595C24.9434 131.368 24.8672 131.099 24.8672 130.786C24.8672 130.267 25.0859 129.827 25.5234 129.468C25.9648 129.108 26.5273 128.929 27.2109 128.929C27.9297 128.929 28.5117 129.114 28.957 129.485C29.4062 129.856 29.6309 130.331 29.6309 130.909H28.541C28.541 130.612 28.4141 130.356 28.1602 130.142C27.9102 129.927 27.5938 129.819 27.2109 129.819C26.8164 129.819 26.5078 129.905 26.2852 130.077C26.0625 130.249 25.9512 130.474 25.9512 130.751C25.9512 131.013 26.0547 131.21 26.2617 131.343C26.4688 131.476 26.8418 131.603 27.3809 131.724C27.9238 131.845 28.3633 131.989 28.6992 132.157C29.0352 132.325 29.2832 132.528 29.4434 132.767C29.6074 133.001 29.6895 133.288 29.6895 133.628C29.6895 134.194 29.4629 134.649 29.0098 134.993C28.5566 135.333 27.9688 135.503 27.2461 135.503C26.7383 135.503 26.2891 135.413 25.8984 135.233C25.5078 135.054 25.2012 134.804 24.9785 134.483C24.7598 134.159 24.6504 133.81 24.6504 133.435H25.7344C25.7539 133.798 25.8984 134.087 26.168 134.302C26.4414 134.513 26.8008 134.618 27.2461 134.618C27.6562 134.618 27.9844 134.536 28.2305 134.372C28.4805 134.204 28.6055 133.981 28.6055 133.704ZM40.7637 131.396C40.7637 132.22 40.6328 132.931 40.3711 133.528C40.1094 134.122 39.7422 134.587 39.2695 134.923L40.793 136.118L40.0254 136.827L38.2266 135.397C37.9453 135.468 37.6484 135.503 37.3359 135.503C36.6641 135.503 36.0684 135.339 35.5488 135.011C35.0293 134.679 34.625 134.208 34.3359 133.599C34.0508 132.985 33.9043 132.276 33.8965 131.472V130.856C33.8965 130.036 34.0391 129.312 34.3242 128.683C34.6094 128.054 35.0117 127.573 35.5312 127.241C36.0547 126.905 36.6523 126.737 37.3242 126.737C38.0117 126.737 38.6152 126.903 39.1348 127.235C39.6582 127.567 40.0605 128.046 40.3418 128.671C40.623 129.292 40.7637 130.019 40.7637 130.851V131.396ZM39.6387 130.845C39.6387 129.841 39.4375 129.067 39.0352 128.524C38.6367 127.978 38.0664 127.704 37.3242 127.704C36.6172 127.704 36.0586 127.976 35.6484 128.519C35.2422 129.058 35.0332 129.808 35.0215 130.769V131.396C35.0215 132.372 35.2246 133.142 35.6309 133.704C36.041 134.267 36.6094 134.548 37.3359 134.548C38.0625 134.548 38.625 134.284 39.0234 133.757C39.4219 133.226 39.627 132.466 39.6387 131.478V130.845ZM46.2422 134.759C45.8203 135.255 45.2012 135.503 44.3848 135.503C43.709 135.503 43.1934 135.308 42.8379 134.917C42.4863 134.522 42.3086 133.94 42.3047 133.171V129.046H43.3887V133.142C43.3887 134.103 43.7793 134.583 44.5605 134.583C45.3887 134.583 45.9395 134.274 46.2129 133.657V129.046H47.2969V135.386H46.2656L46.2422 134.759ZM52.8633 135.386C52.8008 135.261 52.75 135.038 52.7109 134.718C52.207 135.241 51.6055 135.503 50.9062 135.503C50.2812 135.503 49.7676 135.327 49.3652 134.976C48.9668 134.62 48.7676 134.171 48.7676 133.628C48.7676 132.968 49.0176 132.456 49.5176 132.093C50.0215 131.726 50.7285 131.542 51.6387 131.542H52.6934V131.044C52.6934 130.665 52.5801 130.364 52.3535 130.142C52.127 129.915 51.793 129.802 51.3516 129.802C50.9648 129.802 50.6406 129.899 50.3789 130.095C50.1172 130.29 49.9863 130.526 49.9863 130.804H48.8965C48.8965 130.487 49.0078 130.183 49.2305 129.89C49.457 129.593 49.7617 129.358 50.1445 129.187C50.5312 129.015 50.9551 128.929 51.416 128.929C52.1465 128.929 52.7188 129.112 53.1328 129.479C53.5469 129.843 53.7617 130.345 53.7773 130.985V133.903C53.7773 134.485 53.8516 134.948 54 135.292V135.386H52.8633ZM51.0645 134.56C51.4043 134.56 51.7266 134.472 52.0312 134.296C52.3359 134.12 52.5566 133.892 52.6934 133.61V132.31H51.8438C50.5156 132.31 49.8516 132.698 49.8516 133.476C49.8516 133.815 49.9648 134.081 50.1914 134.272C50.418 134.464 50.709 134.56 51.0645 134.56ZM58.541 130.019C58.377 129.991 58.1992 129.978 58.0078 129.978C57.2969 129.978 56.8145 130.28 56.5605 130.886V135.386H55.4766V129.046H56.5312L56.5488 129.778C56.9043 129.212 57.4082 128.929 58.0605 128.929C58.2715 128.929 58.4316 128.956 58.541 129.011V130.019ZM61.3125 132.45L60.6328 133.159V135.386H59.5488V126.386H60.6328V131.829L61.2129 131.132L63.1875 129.046H64.5059L62.0391 131.694L64.793 135.386H63.5215L61.3125 132.45ZM5.70117 151.159H2.12695L1.32422 153.386H0.164062L3.42188 144.854H4.40625L7.66992 153.386H6.51562L5.70117 151.159ZM2.4668 150.233H5.36719L3.91406 146.243L2.4668 150.233ZM9.82617 153.386H8.74219V144.386H9.82617V153.386ZM12.7441 153.386H11.6602V144.386H12.7441V153.386ZM15.6621 153.386H14.5781V147.046H15.6621V153.386ZM14.4902 145.364C14.4902 145.188 14.543 145.04 14.6484 144.919C14.7578 144.798 14.918 144.737 15.1289 144.737C15.3398 144.737 15.5 144.798 15.6094 144.919C15.7188 145.04 15.7734 145.188 15.7734 145.364C15.7734 145.54 15.7188 145.687 15.6094 145.804C15.5 145.921 15.3398 145.979 15.1289 145.979C14.918 145.979 14.7578 145.921 14.6484 145.804C14.543 145.687 14.4902 145.54 14.4902 145.364ZM21.3164 153.386C21.2539 153.261 21.2031 153.038 21.1641 152.718C20.6602 153.241 20.0586 153.503 19.3594 153.503C18.7344 153.503 18.2207 153.327 17.8184 152.976C17.4199 152.62 17.2207 152.171 17.2207 151.628C17.2207 150.968 17.4707 150.456 17.9707 150.093C18.4746 149.726 19.1816 149.542 20.0918 149.542H21.1465V149.044C21.1465 148.665 21.0332 148.364 20.8066 148.142C20.5801 147.915 20.2461 147.802 19.8047 147.802C19.418 147.802 19.0938 147.899 18.832 148.095C18.5703 148.29 18.4395 148.526 18.4395 148.804H17.3496C17.3496 148.487 17.4609 148.183 17.6836 147.89C17.9102 147.593 18.2148 147.358 18.5977 147.187C18.9844 147.015 19.4082 146.929 19.8691 146.929C20.5996 146.929 21.1719 147.112 21.5859 147.479C22 147.843 22.2148 148.345 22.2305 148.985V151.903C22.2305 152.485 22.3047 152.948 22.4531 153.292V153.386H21.3164ZM19.5176 152.56C19.8574 152.56 20.1797 152.472 20.4844 152.296C20.7891 152.12 21.0098 151.892 21.1465 151.61V150.31H20.2969C18.9688 150.31 18.3047 150.698 18.3047 151.476C18.3047 151.815 18.418 152.081 18.6445 152.272C18.8711 152.464 19.1621 152.56 19.5176 152.56ZM24.9551 147.046L24.9902 147.843C25.4746 147.233 26.1074 146.929 26.8887 146.929C28.2285 146.929 28.9043 147.685 28.916 149.196V153.386H27.832V149.19C27.8281 148.733 27.7227 148.396 27.5156 148.177C27.3125 147.958 26.9941 147.849 26.5605 147.849C26.209 147.849 25.9004 147.942 25.6348 148.13C25.3691 148.317 25.1621 148.563 25.0137 148.868V153.386H23.9297V147.046H24.9551ZM33.0938 152.618C33.4805 152.618 33.8184 152.501 34.1074 152.267C34.3965 152.032 34.5566 151.739 34.5879 151.388H35.6133C35.5938 151.751 35.4688 152.097 35.2383 152.425C35.0078 152.753 34.6992 153.015 34.3125 153.21C33.9297 153.405 33.5234 153.503 33.0938 153.503C32.2305 153.503 31.543 153.216 31.0312 152.642C30.5234 152.063 30.2695 151.274 30.2695 150.274V150.093C30.2695 149.476 30.3828 148.927 30.6094 148.446C30.8359 147.966 31.1602 147.593 31.582 147.327C32.0078 147.062 32.5098 146.929 33.0879 146.929C33.7988 146.929 34.3887 147.142 34.8574 147.567C35.3301 147.993 35.582 148.546 35.6133 149.226H34.5879C34.5566 148.815 34.4004 148.479 34.1191 148.218C33.8418 147.952 33.498 147.819 33.0879 147.819C32.5371 147.819 32.1094 148.019 31.8047 148.417C31.5039 148.812 31.3535 149.384 31.3535 150.134V150.339C31.3535 151.069 31.5039 151.632 31.8047 152.026C32.1055 152.421 32.5352 152.618 33.0938 152.618ZM39.4629 153.503C38.6035 153.503 37.9043 153.222 37.3652 152.659C36.8262 152.093 36.5566 151.337 36.5566 150.392V150.192C36.5566 149.563 36.6758 149.003 36.9141 148.511C37.1562 148.015 37.4922 147.628 37.9219 147.351C38.3555 147.069 38.8242 146.929 39.3281 146.929C40.1523 146.929 40.793 147.2 41.25 147.743C41.707 148.286 41.9355 149.063 41.9355 150.075V150.526H37.6406C37.6562 151.151 37.8379 151.657 38.1855 152.044C38.5371 152.427 38.9824 152.618 39.5215 152.618C39.9043 152.618 40.2285 152.54 40.4941 152.384C40.7598 152.228 40.9922 152.021 41.1914 151.763L41.8535 152.278C41.3223 153.095 40.5254 153.503 39.4629 153.503ZM39.3281 147.819C38.8906 147.819 38.5234 147.979 38.2266 148.3C37.9297 148.616 37.7461 149.062 37.6758 149.636H40.8516V149.554C40.8203 149.003 40.6719 148.577 40.4062 148.276C40.1406 147.972 39.7812 147.819 39.3281 147.819Z" fill="white"/>
<path d="M425.443 184.469L428.232 191.43L431.021 184.469H432.48V193H431.355V189.678L431.461 186.092L428.66 193H427.799L425.004 186.109L425.115 189.678V193H423.99V184.469H425.443ZM438.211 193C438.148 192.875 438.098 192.652 438.059 192.332C437.555 192.855 436.953 193.117 436.254 193.117C435.629 193.117 435.115 192.941 434.713 192.59C434.314 192.234 434.115 191.785 434.115 191.242C434.115 190.582 434.365 190.07 434.865 189.707C435.369 189.34 436.076 189.156 436.986 189.156H438.041V188.658C438.041 188.279 437.928 187.979 437.701 187.756C437.475 187.529 437.141 187.416 436.699 187.416C436.312 187.416 435.988 187.514 435.727 187.709C435.465 187.904 435.334 188.141 435.334 188.418H434.244C434.244 188.102 434.355 187.797 434.578 187.504C434.805 187.207 435.109 186.973 435.492 186.801C435.879 186.629 436.303 186.543 436.764 186.543C437.494 186.543 438.066 186.727 438.48 187.094C438.895 187.457 439.109 187.959 439.125 188.6V191.518C439.125 192.1 439.199 192.562 439.348 192.906V193H438.211ZM436.412 192.174C436.752 192.174 437.074 192.086 437.379 191.91C437.684 191.734 437.904 191.506 438.041 191.225V189.924H437.191C435.863 189.924 435.199 190.312 435.199 191.09C435.199 191.43 435.312 191.695 435.539 191.887C435.766 192.078 436.057 192.174 436.412 192.174ZM443.889 187.633C443.725 187.605 443.547 187.592 443.355 187.592C442.645 187.592 442.162 187.895 441.908 188.5V193H440.824V186.66H441.879L441.896 187.393C442.252 186.826 442.756 186.543 443.408 186.543C443.619 186.543 443.779 186.57 443.889 186.625V187.633ZM446.66 190.064L445.98 190.773V193H444.896V184H445.98V189.443L446.561 188.746L448.535 186.66H449.854L447.387 189.309L450.141 193H448.869L446.66 190.064ZM453.486 193.117C452.627 193.117 451.928 192.836 451.389 192.273C450.85 191.707 450.58 190.951 450.58 190.006V189.807C450.58 189.178 450.699 188.617 450.938 188.125C451.18 187.629 451.516 187.242 451.945 186.965C452.379 186.684 452.848 186.543 453.352 186.543C454.176 186.543 454.816 186.814 455.273 187.357C455.73 187.9 455.959 188.678 455.959 189.689V190.141H451.664C451.68 190.766 451.861 191.271 452.209 191.658C452.561 192.041 453.006 192.232 453.545 192.232C453.928 192.232 454.252 192.154 454.518 191.998C454.783 191.842 455.016 191.635 455.215 191.377L455.877 191.893C455.346 192.709 454.549 193.117 453.486 193.117ZM453.352 187.434C452.914 187.434 452.547 187.594 452.25 187.914C451.953 188.23 451.77 188.676 451.699 189.25H454.875V189.168C454.844 188.617 454.695 188.191 454.43 187.891C454.164 187.586 453.805 187.434 453.352 187.434ZM458.689 185.125V186.66H459.873V187.498H458.689V191.43C458.689 191.684 458.742 191.875 458.848 192.004C458.953 192.129 459.133 192.191 459.387 192.191C459.512 192.191 459.684 192.168 459.902 192.121V193C459.617 193.078 459.34 193.117 459.07 193.117C458.586 193.117 458.221 192.971 457.975 192.678C457.729 192.385 457.605 191.969 457.605 191.43V187.498H456.451V186.66H457.605V185.125H458.689ZM462.322 193H461.238V186.66H462.322V193ZM461.15 184.979C461.15 184.803 461.203 184.654 461.309 184.533C461.418 184.412 461.578 184.352 461.789 184.352C462 184.352 462.16 184.412 462.27 184.533C462.379 184.654 462.434 184.803 462.434 184.979C462.434 185.154 462.379 185.301 462.27 185.418C462.16 185.535 462 185.594 461.789 185.594C461.578 185.594 461.418 185.535 461.309 185.418C461.203 185.301 461.15 185.154 461.15 184.979ZM465.088 186.66L465.123 187.457C465.607 186.848 466.24 186.543 467.021 186.543C468.361 186.543 469.037 187.299 469.049 188.811V193H467.965V188.805C467.961 188.348 467.855 188.01 467.648 187.791C467.445 187.572 467.127 187.463 466.693 187.463C466.342 187.463 466.033 187.557 465.768 187.744C465.502 187.932 465.295 188.178 465.146 188.482V193H464.062V186.66H465.088ZM470.426 189.777C470.426 188.789 470.654 188.004 471.111 187.422C471.568 186.836 472.174 186.543 472.928 186.543C473.701 186.543 474.305 186.816 474.738 187.363L474.791 186.66H475.781V192.848C475.781 193.668 475.537 194.314 475.049 194.787C474.564 195.26 473.912 195.496 473.092 195.496C472.635 195.496 472.188 195.398 471.75 195.203C471.312 195.008 470.979 194.74 470.748 194.4L471.311 193.75C471.775 194.324 472.344 194.611 473.016 194.611C473.543 194.611 473.953 194.463 474.246 194.166C474.543 193.869 474.691 193.451 474.691 192.912V192.367C474.258 192.867 473.666 193.117 472.916 193.117C472.174 193.117 471.572 192.818 471.111 192.221C470.654 191.623 470.426 190.809 470.426 189.777ZM471.516 189.9C471.516 190.615 471.662 191.178 471.955 191.588C472.248 191.994 472.658 192.197 473.186 192.197C473.869 192.197 474.371 191.887 474.691 191.266V188.371C474.359 187.766 473.861 187.463 473.197 187.463C472.67 187.463 472.258 187.668 471.961 188.078C471.664 188.488 471.516 189.096 471.516 189.9Z" fill="white"/>
<path d="M458.119 289.549H456.115V293H454.984V284.469H457.809C458.77 284.469 459.508 284.688 460.023 285.125C460.543 285.562 460.803 286.199 460.803 287.035C460.803 287.566 460.658 288.029 460.369 288.424C460.084 288.818 459.686 289.113 459.174 289.309L461.178 292.93V293H459.971L458.119 289.549ZM456.115 288.629H457.844C458.402 288.629 458.846 288.484 459.174 288.195C459.506 287.906 459.672 287.52 459.672 287.035C459.672 286.508 459.514 286.104 459.197 285.822C458.885 285.541 458.432 285.398 457.838 285.395H456.115V288.629ZM461.986 290.709C461.986 290.299 462.1 289.922 462.326 289.578C462.557 289.234 462.994 288.834 463.639 288.377C463.26 287.916 463.006 287.545 462.877 287.264C462.748 286.982 462.684 286.703 462.684 286.426C462.684 285.777 462.875 285.27 463.258 284.902C463.641 284.535 464.16 284.352 464.816 284.352C465.402 284.352 465.887 284.523 466.27 284.867C466.652 285.207 466.844 285.637 466.844 286.156C466.844 286.5 466.756 286.818 466.58 287.111C466.408 287.4 466.105 287.705 465.672 288.025L465.045 288.488L466.943 290.756C467.209 290.248 467.342 289.684 467.342 289.062H468.32C468.32 290.059 468.08 290.885 467.6 291.541L468.818 293H467.518L466.949 292.326C466.66 292.584 466.32 292.781 465.93 292.918C465.543 293.051 465.148 293.117 464.746 293.117C463.914 293.117 463.246 292.896 462.742 292.455C462.238 292.014 461.986 291.432 461.986 290.709ZM464.746 292.232C465.32 292.232 465.846 292.014 466.322 291.576L464.242 289.086L464.049 289.227C463.396 289.707 463.07 290.201 463.07 290.709C463.07 291.17 463.219 291.539 463.516 291.816C463.816 292.094 464.227 292.232 464.746 292.232ZM463.768 286.391C463.768 286.766 463.998 287.234 464.459 287.797L465.15 287.311C465.416 287.123 465.598 286.945 465.695 286.777C465.793 286.605 465.842 286.398 465.842 286.156C465.842 285.895 465.744 285.678 465.549 285.506C465.354 285.33 465.107 285.242 464.811 285.242C464.49 285.242 464.236 285.352 464.049 285.57C463.861 285.785 463.768 286.059 463.768 286.391ZM469.85 293V284.469H472.258C473 284.469 473.656 284.633 474.227 284.961C474.797 285.289 475.236 285.756 475.545 286.361C475.857 286.967 476.016 287.662 476.02 288.447V288.992C476.02 289.797 475.863 290.502 475.551 291.107C475.242 291.713 474.799 292.178 474.221 292.502C473.646 292.826 472.977 292.992 472.211 293H469.85ZM470.975 285.395V292.08H472.158C473.025 292.08 473.699 291.811 474.18 291.271C474.664 290.732 474.906 289.965 474.906 288.969V288.471C474.906 287.502 474.678 286.75 474.221 286.215C473.768 285.676 473.123 285.402 472.287 285.395H470.975Z" fill="white"/>
<path d="M188.934 152.996H184.943V164H182.737V152.996H178.782V151.203H188.934V152.996ZM188.187 159.157C188.187 158.226 188.371 157.388 188.74 156.644C189.109 155.894 189.628 155.319 190.296 154.921C190.964 154.517 191.731 154.314 192.599 154.314C193.882 154.314 194.922 154.728 195.719 155.554C196.521 156.38 196.955 157.476 197.02 158.841L197.028 159.342C197.028 160.279 196.847 161.117 196.483 161.855C196.126 162.594 195.61 163.165 194.937 163.569C194.269 163.974 193.495 164.176 192.616 164.176C191.274 164.176 190.199 163.73 189.391 162.84C188.588 161.943 188.187 160.751 188.187 159.263V159.157ZM190.322 159.342C190.322 160.32 190.524 161.088 190.929 161.645C191.333 162.195 191.896 162.471 192.616 162.471C193.337 162.471 193.896 162.189 194.295 161.627C194.699 161.064 194.901 160.241 194.901 159.157C194.901 158.196 194.693 157.435 194.277 156.872C193.867 156.31 193.308 156.028 192.599 156.028C191.901 156.028 191.348 156.307 190.938 156.863C190.527 157.414 190.322 158.24 190.322 159.342ZM201.924 159.922L200.975 160.897V164H198.839V150.5H200.975V158.287L201.643 157.452L204.271 154.49H206.837L203.304 158.454L207.215 164H204.745L201.924 159.922ZM212.251 164.176C210.897 164.176 209.799 163.751 208.955 162.901C208.117 162.046 207.698 160.909 207.698 159.491V159.228C207.698 158.278 207.88 157.432 208.243 156.688C208.612 155.938 209.128 155.354 209.79 154.938C210.452 154.522 211.19 154.314 212.005 154.314C213.3 154.314 214.299 154.728 215.002 155.554C215.711 156.38 216.065 157.549 216.065 159.061V159.922H209.852C209.916 160.707 210.177 161.328 210.634 161.785C211.097 162.242 211.677 162.471 212.374 162.471C213.353 162.471 214.149 162.075 214.765 161.284L215.916 162.383C215.535 162.951 215.025 163.394 214.387 163.71C213.754 164.021 213.042 164.176 212.251 164.176ZM211.996 156.028C211.41 156.028 210.936 156.233 210.572 156.644C210.215 157.054 209.986 157.625 209.887 158.357H213.956V158.199C213.909 157.484 213.719 156.945 213.385 156.582C213.051 156.213 212.588 156.028 211.996 156.028ZM219.713 154.49L219.774 155.589C220.478 154.739 221.4 154.314 222.543 154.314C224.523 154.314 225.531 155.448 225.566 157.716V164H223.431V157.839C223.431 157.235 223.299 156.79 223.035 156.503C222.777 156.21 222.353 156.063 221.761 156.063C220.899 156.063 220.258 156.453 219.836 157.232V164H217.7V154.49H219.713ZM239.603 161.021H234.646L233.608 164H231.297L236.131 151.203H238.126L242.969 164H240.648L239.603 161.021ZM235.27 159.228H238.979L237.124 153.919L235.27 159.228ZM246.493 164H244.357V150.5H246.493V164ZM251.099 164H248.963V150.5H251.099V164ZM253.032 159.157C253.032 158.226 253.217 157.388 253.586 156.644C253.955 155.894 254.474 155.319 255.142 154.921C255.81 154.517 256.577 154.314 257.444 154.314C258.728 154.314 259.768 154.728 260.564 155.554C261.367 156.38 261.801 157.476 261.865 158.841L261.874 159.342C261.874 160.279 261.692 161.117 261.329 161.855C260.972 162.594 260.456 163.165 259.782 163.569C259.114 163.974 258.341 164.176 257.462 164.176C256.12 164.176 255.045 163.73 254.236 162.84C253.434 161.943 253.032 160.751 253.032 159.263V159.157ZM255.168 159.342C255.168 160.32 255.37 161.088 255.774 161.645C256.179 162.195 256.741 162.471 257.462 162.471C258.183 162.471 258.742 162.189 259.141 161.627C259.545 161.064 259.747 160.241 259.747 159.157C259.747 158.196 259.539 157.435 259.123 156.872C258.713 156.31 258.153 156.028 257.444 156.028C256.747 156.028 256.193 156.307 255.783 156.863C255.373 157.414 255.168 158.24 255.168 159.342ZM267.587 162.471C268.12 162.471 268.562 162.315 268.914 162.005C269.266 161.694 269.453 161.311 269.477 160.854H271.489C271.466 161.445 271.281 161.999 270.936 162.515C270.59 163.024 270.121 163.429 269.529 163.728C268.938 164.026 268.299 164.176 267.613 164.176C266.283 164.176 265.229 163.745 264.449 162.884C263.67 162.022 263.28 160.833 263.28 159.315V159.096C263.28 157.648 263.667 156.491 264.44 155.624C265.214 154.751 266.269 154.314 267.604 154.314C268.735 154.314 269.655 154.646 270.364 155.308C271.079 155.964 271.454 156.828 271.489 157.9H269.477C269.453 157.355 269.266 156.907 268.914 156.556C268.568 156.204 268.126 156.028 267.587 156.028C266.896 156.028 266.362 156.28 265.987 156.784C265.612 157.282 265.422 158.041 265.416 159.061V159.403C265.416 160.435 265.601 161.205 265.97 161.715C266.345 162.219 266.884 162.471 267.587 162.471ZM278.784 164C278.69 163.818 278.608 163.522 278.538 163.112C277.858 163.821 277.026 164.176 276.042 164.176C275.087 164.176 274.308 163.903 273.704 163.358C273.101 162.813 272.799 162.14 272.799 161.337C272.799 160.323 273.174 159.547 273.924 159.008C274.68 158.463 275.758 158.19 277.158 158.19H278.468V157.566C278.468 157.074 278.33 156.682 278.055 156.389C277.779 156.09 277.36 155.94 276.798 155.94C276.312 155.94 275.913 156.063 275.603 156.31C275.292 156.55 275.137 156.857 275.137 157.232H273.001C273.001 156.711 273.174 156.225 273.52 155.773C273.865 155.316 274.334 154.959 274.926 154.701C275.523 154.443 276.188 154.314 276.921 154.314C278.034 154.314 278.922 154.596 279.584 155.158C280.246 155.715 280.586 156.5 280.604 157.514V161.803C280.604 162.658 280.724 163.341 280.964 163.851V164H278.784ZM276.438 162.462C276.859 162.462 277.255 162.359 277.624 162.154C277.999 161.949 278.28 161.674 278.468 161.328V159.535H277.316C276.525 159.535 275.931 159.673 275.532 159.948C275.134 160.224 274.935 160.613 274.935 161.117C274.935 161.527 275.069 161.855 275.339 162.102C275.614 162.342 275.98 162.462 276.438 162.462ZM285.517 152.179V154.49H287.195V156.072H285.517V161.381C285.517 161.744 285.587 162.008 285.728 162.172C285.874 162.33 286.132 162.409 286.501 162.409C286.747 162.409 286.996 162.38 287.248 162.321V163.974C286.762 164.108 286.293 164.176 285.842 164.176C284.201 164.176 283.381 163.271 283.381 161.46V156.072H281.816V154.49H283.381V152.179H285.517ZM291.106 164H288.971V154.49H291.106V164ZM288.839 152.021C288.839 151.692 288.941 151.42 289.146 151.203C289.357 150.986 289.656 150.878 290.043 150.878C290.43 150.878 290.729 150.986 290.939 151.203C291.15 151.42 291.256 151.692 291.256 152.021C291.256 152.343 291.15 152.612 290.939 152.829C290.729 153.04 290.43 153.146 290.043 153.146C289.656 153.146 289.357 153.04 289.146 152.829C288.941 152.612 288.839 152.343 288.839 152.021ZM293.04 159.157C293.04 158.226 293.225 157.388 293.594 156.644C293.963 155.894 294.481 155.319 295.149 154.921C295.817 154.517 296.585 154.314 297.452 154.314C298.735 154.314 299.775 154.728 300.572 155.554C301.375 156.38 301.809 157.476 301.873 158.841L301.882 159.342C301.882 160.279 301.7 161.117 301.337 161.855C300.979 162.594 300.464 163.165 299.79 163.569C299.122 163.974 298.349 164.176 297.47 164.176C296.128 164.176 295.053 163.73 294.244 162.84C293.441 161.943 293.04 160.751 293.04 159.263V159.157ZM295.176 159.342C295.176 160.32 295.378 161.088 295.782 161.645C296.187 162.195 296.749 162.471 297.47 162.471C298.19 162.471 298.75 162.189 299.148 161.627C299.553 161.064 299.755 160.241 299.755 159.157C299.755 158.196 299.547 157.435 299.131 156.872C298.721 156.31 298.161 156.028 297.452 156.028C296.755 156.028 296.201 156.307 295.791 156.863C295.381 157.414 295.176 158.24 295.176 159.342ZM305.67 154.49L305.731 155.589C306.435 154.739 307.357 154.314 308.5 154.314C310.48 154.314 311.488 155.448 311.523 157.716V164H309.388V157.839C309.388 157.235 309.256 156.79 308.992 156.503C308.734 156.21 308.31 156.063 307.718 156.063C306.856 156.063 306.215 156.453 305.793 157.232V164H303.657V154.49H305.67Z" fill="white"/>
</g>
<defs>
<clipPath id="clip0">
<rect width="477" height="316" fill="white"/>
</clipPath>
</defs>
</svg>
