<svg width="98" height="86" viewBox="0 0 98 86" fill="none" xmlns="http://www.w3.org/2000/svg">
<path fill-rule="evenodd" clip-rule="evenodd" d="M1.56641 6.63333C1.56641 3.52213 4.08854 1 7.19974 1H31.526L35.9593 5.43335H15.2C10.119 5.43335 6 9.55233 6 14.6334V73.472C3.46517 72.9221 1.56641 70.6662 1.56641 67.9667V6.63333ZM6 74.4918V75.9667C6 81.0477 10.119 85.1667 15.2 85.1667H88.8C93.881 85.1667 98 81.0477 98 75.9667V26.9C98 21.819 93.881 17.7 88.8 17.7H87.3248C86.7601 14.6094 84.0535 12.2667 80.7997 12.2667H47.8369L41.0036 5.43335H37.3735L32.0866 0.146447L31.9402 0H31.7331H7.19974C3.53625 0 0.566406 2.96984 0.566406 6.63333V67.9667C0.566406 71.2205 2.90922 73.9272 6 74.4918ZM48.8369 13.2667H80.7997C83.4991 13.2667 85.7551 15.1653 86.305 17.7H53.2703L48.8369 13.2667Z" fill="white" fill-opacity="0.5"/>
</svg>
