<svg width="184" height="68" viewBox="0 0 184 68" fill="none" xmlns="http://www.w3.org/2000/svg">
<g clip-path="url(#clip0)">
<path d="M40.3035 33.8656C38.7868 32.5712 36.8894 31.6741 34.865 31.2383V22.8569C36.3119 23.6515 37.2892 24.9971 37.3653 26.5286C37.3653 28.2715 38.7804 29.5787 40.6525 29.5787C42.5245 29.5787 43.9397 28.2651 43.9397 26.4837C43.7874 21.5369 39.9925 17.5063 34.865 16.3465V15.898C34.865 14.155 33.5641 12.8478 31.8443 12.8478C30.1246 12.8478 28.8237 14.1614 28.8237 15.898V16.3465C23.6962 17.5063 19.9077 21.5497 19.749 26.5478C19.8315 31.4754 23.6898 35.5764 28.8237 36.7235V45.6432C27.2055 44.7461 26.2409 43.1954 26.3234 41.5293V41.4653C26.3234 39.7223 24.9083 38.4151 23.0362 38.4151C21.1642 38.4151 19.749 39.7287 19.749 41.4909C19.8315 46.4185 23.6898 50.5195 28.8237 51.6665V52.0959C28.8237 53.7811 30.1817 55.146 31.8443 55.146C33.507 55.146 34.865 53.7747 34.865 52.0959V51.6922C36.8894 51.2564 38.7868 50.3657 40.3035 49.0714C42.6197 47.0977 43.946 44.3231 43.946 41.4653C43.946 38.6138 42.6197 35.8392 40.3035 33.8656ZM28.8237 30.2387C27.3768 29.457 26.3932 28.0985 26.3297 26.5414C26.4249 24.9907 27.3959 23.6515 28.8237 22.8569V30.2387ZM35.7281 45.0601C35.4615 45.2843 35.1696 45.4702 34.865 45.6368V37.832C35.8106 38.3575 36.5721 39.1264 36.9972 40.0491C37.7905 41.7792 37.2892 43.7464 35.7281 45.0601Z" fill="white"/>
<path d="M31.8441 1.85834C18.9238 1.85834 7.38055 9.64386 2.43708 21.697C-2.50639 33.7502 0.203318 47.5014 9.3351 56.7223C15.4399 62.8866 23.5436 66.1546 31.8124 66.1546C35.9182 66.1546 40.062 65.3472 44.0219 63.694C55.9586 58.7023 63.6689 47.0464 63.6689 34.0001C63.6562 16.2952 49.3779 1.87756 31.8441 1.85834ZM31.8441 59.7147C21.5066 59.7147 12.2733 53.4863 8.31341 43.8425C4.3599 34.1987 6.52385 23.2029 13.8344 15.821C18.7207 10.887 25.1999 8.27899 31.8187 8.27899C35.1059 8.27899 38.4185 8.92619 41.5914 10.2462C51.142 14.2383 57.3103 23.5681 57.3103 34.0065C57.2976 48.1614 45.8686 59.6955 31.8441 59.7147Z" fill="white"/>
<path d="M158.064 29.4697C150.018 29.4697 143.469 22.8568 143.469 14.7316C143.469 6.60648 150.018 -0.00640869 158.064 -0.00640869C166.111 -0.00640869 172.654 6.60648 172.654 14.7316C172.654 22.8568 166.111 29.4697 158.064 29.4697ZM158.064 6.40784C153.514 6.40784 149.815 10.1436 149.815 14.738C149.815 19.3325 153.514 23.0682 158.064 23.0682C162.614 23.0682 166.308 19.3325 166.308 14.738C166.308 10.1436 162.608 6.40784 158.064 6.40784Z" fill="white"/>
<path d="M180.827 68H135.308C133.556 68 132.135 66.5646 132.135 64.796V59.5865C132.135 45.2906 143.653 33.6603 157.81 33.6603H158.331C172.488 33.6603 184.006 45.2906 184.006 59.5865V64.796C184 66.5646 182.579 68 180.827 68ZM138.474 61.5921H177.648V59.5865C177.648 48.8277 168.979 40.0682 158.318 40.0682H157.798C147.143 40.0682 138.468 48.8213 138.468 59.5865V61.5921H138.474Z" fill="white"/>
<path d="M106.18 22.8568L119.151 33.8911L105.85 45.784V39.3826H84.9022V29.6042H105.85L106.18 22.8568ZM106.18 17.0897C105.406 17.0897 104.632 17.2499 103.902 17.5703C101.909 18.4482 100.583 20.3834 100.481 22.5748L100.418 23.8372H84.9086C81.7547 23.8372 79.1973 26.4195 79.1973 29.6042V39.3826C79.1973 42.5673 81.7547 45.1497 84.9086 45.1497H100.145V45.784C100.145 48.0524 101.465 50.1093 103.515 51.0449C104.264 51.3845 105.063 51.5511 105.856 51.5511C107.227 51.5511 108.579 51.0513 109.645 50.1029L122.946 38.21C124.19 37.1014 124.888 35.4994 124.869 33.8206C124.85 32.1417 124.107 30.559 122.838 29.4825L109.867 18.4482C108.807 17.5575 107.5 17.0897 106.18 17.0897Z" fill="white"/>
</g>
<defs>
<clipPath id="clip0">
<rect width="184" height="68" fill="white"/>
</clipPath>
</defs>
</svg>
