<svg width="61" height="100" viewBox="0 0 61 100" fill="none" xmlns="http://www.w3.org/2000/svg">
<g clip-path="url(#clip0)">
<path d="M30.5 53.8058C13.683 53.8058 0 67.5868 0 84.5287V96.8886C0 98.6079 1.38423 100 3.089 100H57.911C59.6178 100 61 98.6058 61 96.8886V84.5287C61 67.5868 47.319 53.8058 30.5 53.8058ZM33.7932 60.2531L30.3387 64.5266L26.9271 60.2922C28.0929 60.1174 29.2873 60.0269 30.5 60.0269C31.6168 60.0289 32.7172 60.1071 33.7932 60.2531ZM30.3918 79.7945L34.8609 93.777H26.0921L30.3918 79.7945ZM6.18003 84.5287C6.18003 74.6078 12.064 66.0443 20.5021 62.1965L26.8945 70.1307L19.6222 93.775H6.18003V84.5287ZM54.822 93.775H41.3513L33.7891 70.1163L40.2733 62.0958C48.8318 65.8942 54.822 74.5194 54.822 84.5287V93.775Z" fill="white"/>
<path d="M39.179 2.77891C30.5388 -0.826233 20.6818 1.14806 14.0689 7.80924C7.45404 14.4704 5.49407 24.3995 9.07306 33.1028C12.652 41.8062 21.0085 47.4308 30.3612 47.4308H30.3632C43.0541 47.4164 53.3888 37.0062 53.4031 24.2206C53.4031 14.8015 47.8192 6.38405 39.179 2.77891ZM30.3592 6.33058C40.1427 6.34086 48.1091 14.3676 48.1214 24.2206C48.1214 31.4823 43.8176 37.9707 37.1578 40.7491C30.498 43.5275 22.9011 42.0056 17.8031 36.8704C12.7051 31.7352 11.1943 24.0828 13.9526 17.3743C16.7108 10.6679 23.1501 6.33264 30.3592 6.33058Z" fill="white"/>
<path d="M28.2315 26.1414V32.1712C27.1658 31.5563 26.5349 30.5239 26.59 29.4134L26.5921 29.3661C26.5921 28.1424 25.5978 27.2211 24.2789 27.2211C22.96 27.2211 21.9657 28.1424 21.9678 29.3825C22.027 32.7861 24.6852 35.6304 28.2315 36.4324V36.6874C28.2315 37.87 29.187 38.8324 30.3609 38.8324C31.5349 38.8324 32.4904 37.87 32.4904 36.6874V36.453C33.8848 36.1507 35.1853 35.5275 36.2286 34.6391C37.8354 33.2715 38.7561 31.3507 38.7561 29.3661C38.7561 27.3836 37.8354 25.4628 36.2286 24.0951C35.1853 23.2067 33.8828 22.5856 32.4904 22.2833V16.6216C33.4356 17.1666 34.0726 18.0633 34.1298 19.1018C34.1441 20.3111 35.1343 21.2201 36.443 21.2201C37.7619 21.2201 38.7561 20.2987 38.7561 19.0751V19.0463C38.65 15.6283 36.0367 12.8334 32.4924 12.0211V11.7538C32.4924 10.5301 31.5778 9.60876 30.363 9.60876C29.1482 9.60876 28.2336 10.5301 28.2336 11.7538V12.0211C24.6893 12.8334 22.076 15.6283 21.9698 19.0463V19.0689V19.0915C22.0249 22.4951 24.6852 25.3394 28.2315 26.1414ZM28.2315 21.5491C27.2822 21.0124 26.635 20.1137 26.5921 19.0854C26.6554 18.055 27.2903 17.1646 28.2315 16.6237V21.5491ZM32.4904 26.9291C33.1069 27.2869 33.601 27.7969 33.8807 28.4057C34.4197 29.5779 34.0808 30.9126 33.0171 31.8031C32.8538 31.9409 32.6762 32.0602 32.4904 32.1671V26.9291Z" fill="white"/>
</g>
<defs>
<clipPath id="clip0">
<rect width="61" height="100" fill="white"/>
</clipPath>
</defs>
</svg>
