<svg width="87" height="88" viewBox="0 0 87 88" fill="none" xmlns="http://www.w3.org/2000/svg">
<path d="M53.9382 0C35.7102 0 20.8765 14.8042 20.8765 33.0043C20.8765 37.9199 22.0027 42.8431 24.1323 47.2789H16.7827C14.0573 47.2789 11.8432 49.493 11.8432 52.2098V73.3033C10.6362 72.5934 9.28697 72.2212 7.90315 72.2212C3.54412 72.225 0 75.763 0 80.1144C0 84.4659 3.54412 88 7.89931 88C12.2545 88 15.7986 84.462 15.7986 80.1144V60.0992H38.6355V73.3071C37.4285 72.5972 36.0793 72.225 34.6954 72.225C30.3403 72.225 26.7961 75.763 26.7961 80.1106C26.7961 84.4582 30.3403 87.9962 34.6954 87.9962C39.0506 87.9962 42.5947 84.4582 42.5947 80.1106V64.0056C46.2273 65.3333 50.0405 66.0048 53.9344 66.0048C72.1662 66.0048 86.9962 51.2006 86.9962 33.0005C87 14.8042 72.1701 0 53.9382 0ZM37.6591 47.2789H28.6066C26.1388 42.9275 24.8357 37.9966 24.8357 33.0043C24.8357 16.9837 37.8898 3.95238 53.9382 3.95238C69.9829 3.95238 83.0407 16.9837 83.0407 33.0043C83.0407 49.0211 69.9867 62.0563 53.9382 62.0563C50.0136 62.0563 46.1965 61.2811 42.5986 59.7577V52.2137C42.5986 49.493 40.3806 47.2789 37.6591 47.2789ZM38.6393 52.2137V56.1469H15.8025V52.2137C15.8025 51.6726 16.2407 51.2352 16.7827 51.2352H37.6591C38.1973 51.2352 38.6393 51.6726 38.6393 52.2137ZM11.8393 80.1144C11.8393 82.2825 10.0711 84.0476 7.89931 84.0476C5.72748 84.0476 3.95926 82.2825 3.95926 80.1144C3.95926 77.9464 5.72748 76.1812 7.89931 76.1812C10.075 76.1812 11.8393 77.9425 11.8393 80.1144ZM38.6393 80.1144C38.6393 82.2825 36.8711 84.0476 34.6993 84.0476C32.5275 84.0476 30.7592 82.2825 30.7592 80.1144C30.7592 77.9464 32.5275 76.1812 34.6993 76.1812C36.8711 76.1812 38.6393 77.9425 38.6393 80.1144Z" fill="url(#paint0_linear)"/>
<path d="M53.9379 39.4127C57.4782 39.4127 60.3573 36.5385 60.3573 33.0044C60.3573 29.4703 57.4782 26.5962 53.9379 26.5962C50.3977 26.5962 47.5186 29.4703 47.5186 33.0044C47.5186 36.5385 50.3977 39.4127 53.9379 39.4127ZM51.4778 33.0044C51.4778 31.6499 52.581 30.5486 53.9379 30.5486C55.2949 30.5486 56.3981 31.6499 56.3981 33.0044C56.3981 34.359 55.2949 35.4603 53.9379 35.4603C52.581 35.4603 51.4778 34.359 51.4778 33.0044Z" fill="url(#paint1_linear)"/>
<path d="M53.9385 48.2804C62.3759 48.2804 69.2374 41.427 69.2374 33.0081C69.2374 24.5853 62.3721 17.7319 53.9385 17.7319C45.501 17.7319 38.6357 24.5853 38.6357 33.0081C38.6396 41.427 45.501 48.2804 53.9385 48.2804ZM42.5988 33.0043C42.5988 26.761 47.6882 21.6843 53.9385 21.6843C60.1887 21.6843 65.2781 26.7649 65.2781 33.0043C65.2781 39.2436 60.1926 44.3242 53.9385 44.3242C47.6844 44.3242 42.5988 39.2475 42.5988 33.0043Z" fill="url(#paint2_linear)"/>
<defs>
<linearGradient id="paint0_linear" x1="43.4981" y1="0" x2="43.4981" y2="88" gradientUnits="userSpaceOnUse">
<stop stop-color="#5D63FF"/>
<stop offset="1" stop-color="#6512EA"/>
</linearGradient>
<linearGradient id="paint1_linear" x1="53.9379" y1="26.5962" x2="53.9379" y2="39.4127" gradientUnits="userSpaceOnUse">
<stop stop-color="#5D63FF"/>
<stop offset="1" stop-color="#6512EA"/>
</linearGradient>
<linearGradient id="paint2_linear" x1="53.9366" y1="17.7319" x2="53.9366" y2="48.2804" gradientUnits="userSpaceOnUse">
<stop stop-color="#5D63FF"/>
<stop offset="1" stop-color="#6512EA"/>
</linearGradient>
</defs>
</svg>
