<svg width="24" height="24" viewBox="0 0 24 24" fill="none" xmlns="http://www.w3.org/2000/svg">
<path d="M8 8.8C8 6.59086 9.79086 4.8 12 4.8C14.2091 4.8 16 6.59086 16 8.8C16 11.0091 14.2091 12.8 12 12.8C9.79086 12.8 8 11.0091 8 8.8Z" fill="white"/>
<path fill-rule="evenodd" clip-rule="evenodd" d="M12 0C5.37258 0 0 5.37258 0 12C0 18.6274 5.37258 24 12 24C18.6274 24 24 18.6274 24 12C24 5.37258 18.6274 0 12 0ZM1.6 12C1.6 6.25624 6.25624 1.6 12 1.6C17.7438 1.6 22.4 6.25624 22.4 12C22.4 14.9593 21.164 17.6299 19.1801 19.5238C18.9385 16.6538 16.5324 14.4 13.6 14.4H10.4C7.46758 14.4 5.06152 16.6538 4.81995 19.5238C2.83601 17.6299 1.6 14.9593 1.6 12Z" fill="white"/>
</svg>
