<svg width="77" height="77" viewBox="0 0 77 77" fill="none" xmlns="http://www.w3.org/2000/svg">
<path d="M62.3959 44.1534C65.4614 42.8971 66.9376 39.3567 65.6921 36.269C65.0882 34.7758 63.9434 33.6042 62.463 32.9781C60.9869 32.3479 59.3556 32.3394 57.8711 32.9443C54.8056 34.2006 53.3294 37.7409 54.5749 40.8287C55.8246 43.9207 59.3304 45.4096 62.3959 44.1534ZM59.1669 36.159C60.4711 35.6218 61.9682 36.2605 62.5008 37.576C63.0333 38.8957 62.4001 40.4015 61.0959 40.9387C60.5927 41.146 60.0517 41.184 59.5317 41.0571C59.3975 41.0233 59.2675 40.981 59.1375 40.926C58.5085 40.6595 58.0178 40.1604 57.762 39.5217C57.2295 38.202 57.8627 36.6962 59.1669 36.159Z" fill="url(#paint0_linear)"/>
<path d="M45.7976 33.9468C49.0728 34.4036 52.1089 32.0857 52.5618 28.7779C52.9854 25.6817 50.9935 22.7969 48.0412 22.0736C47.8441 22.0271 47.6428 21.9848 47.4373 21.9594C44.1579 21.5026 41.126 23.8206 40.6731 27.1283C40.2244 30.4318 42.5266 33.4942 45.7976 33.9468ZM44.5773 29.5139C44.1663 28.964 43.9902 28.2873 44.0825 27.602C44.1747 26.921 44.527 26.3162 45.0721 25.8974C45.6173 25.4829 46.2925 25.301 46.9676 25.3983C47.6428 25.4913 48.2467 25.8466 48.6576 26.4008C49.0686 26.9506 49.2447 27.6274 49.1525 28.3084C49.0602 28.9894 48.708 29.5943 48.1628 30.013C47.6176 30.4318 46.9425 30.6094 46.2673 30.5122C46.1792 30.4995 46.0912 30.4826 46.0073 30.4614C45.437 30.3218 44.9379 29.9919 44.5773 29.5139Z" fill="url(#paint1_linear)"/>
<path d="M42.7576 56.1661C39.4824 55.7093 36.4463 58.0272 35.9934 61.335C35.5405 64.6427 37.8428 67.7051 41.1179 68.1577C44.3931 68.6145 47.4293 66.2966 47.8822 62.9888C48.3351 59.6811 46.0328 56.6144 42.7576 56.1661ZM41.5876 64.7146C41.4995 64.7019 41.4157 64.685 41.3318 64.6638C40.0737 64.3551 39.2224 63.1242 39.4028 61.8045C39.495 61.1235 39.8473 60.5186 40.3924 60.0998C40.9376 59.6853 41.6128 59.5034 42.2879 59.6007C42.9673 59.698 43.567 60.0491 43.9779 60.599C44.3889 61.1488 44.565 61.8256 44.4728 62.5108C44.2799 63.9194 42.9883 64.9092 41.5876 64.7146Z" fill="url(#paint2_linear)"/>
<path d="M61.4732 50.8745C60.2068 49.8805 58.6342 49.4448 57.0448 49.6479C55.4555 49.8467 54.038 50.663 53.0525 51.9404C51.0229 54.5756 51.4967 58.3825 54.1093 60.4339C55.3758 61.4279 56.9484 61.8636 58.5377 61.6606C60.1271 61.4618 61.5445 60.6454 62.53 59.368C63.5155 58.0906 63.9474 56.5044 63.7461 54.9013C63.549 53.2982 62.7397 51.8685 61.4732 50.8745ZM59.8126 57.2362C59.3932 57.7818 58.7893 58.1287 58.11 58.2133C57.7955 58.2513 57.4851 58.2344 57.1874 58.1625C56.8393 58.0779 56.5122 57.9172 56.2229 57.693C55.1074 56.8174 54.9061 55.1932 55.7742 54.0723C56.6422 52.9471 58.2526 52.7441 59.3639 53.6197C60.4752 54.4868 60.6806 56.111 59.8126 57.2362Z" fill="url(#paint3_linear)"/>
<path d="M73.3326 32.2379C70.0113 24.4084 63.9683 18.3344 56.7596 15.5681C49.4838 12.7806 42.2037 13.3685 37.3853 14.3499L36.555 14.5191L38.9915 9.4644L39.3941 9.5913L39.0124 9.41787C39.7421 7.79361 39.7966 5.98324 39.176 4.31669C38.5511 2.65013 37.3224 1.33042 35.7163 0.598656C35.3305 0.425233 34.9363 0.285648 34.5379 0.188362C33.2547 -0.128876 31.9085 -0.0442793 30.6505 0.433693C29.0024 1.06394 27.694 2.30751 26.9685 3.93177L26.9475 3.9783L21.0807 18.1779L9.11231 45.3123L8.88586 45.3461C5.29197 45.9172 2.25583 48.2478 0.762922 51.5809C-0.927085 55.3539 0.47776 64.4946 2.19293 71.1778C2.33132 71.7192 2.70035 72.1591 3.20777 72.3917C3.71519 72.6244 4.28971 72.6117 4.78455 72.3579C10.8904 69.2278 18.6191 64.2366 20.3007 60.4763C21.7937 57.1432 21.5169 53.3025 19.5627 50.2062L19.4369 50.0074L21.0766 46.6066L21.4833 46.9069C24.6704 49.263 26.5953 51.8728 27.2159 54.656C28.105 58.6701 26.0166 62.0371 25.3582 62.9761C24.3559 64.3973 23.9575 66.1654 24.2595 67.8362C24.5446 69.397 25.4127 70.7336 26.7001 71.6007C28.4195 72.7597 30.2353 73.7453 32.0931 74.5363C38.786 77.3829 46.3554 77.7763 53.4089 75.6402C62.5845 72.8655 69.9442 66.2585 73.5968 57.5196C76.8971 49.631 76.8007 40.4141 73.3326 32.2379ZM16.9836 58.9662C15.9436 61.2926 10.4626 65.0064 5.67778 67.7093L5.18294 67.9885L5.06133 67.4301C3.9081 62.0244 3.04422 55.4216 4.08423 53.0952C5.69036 49.5083 9.88812 47.9094 13.4443 49.5252C15.1636 50.3077 16.4804 51.7205 17.1514 53.5013C17.8223 55.2863 17.7594 57.2277 16.9836 58.9662ZM16.9459 46.7758L16.7404 47.203L16.342 46.945C15.4446 46.3655 14.4675 45.9214 13.4443 45.6253L12.983 45.4942L30.2982 5.42067C30.9818 3.93177 32.7347 3.27614 34.2108 3.94446C35.6869 4.617 36.3537 6.37662 35.7037 7.87398C34.9656 9.40518 17.6169 45.3842 16.9459 46.7758ZM28.7424 32.8766C29.6105 31.7557 31.2166 31.5484 32.3321 32.424C32.8689 32.847 33.2127 33.4561 33.3008 34.1413C33.3847 34.8265 33.2043 35.5033 32.785 36.0447C32.3656 36.5904 31.7618 36.9372 31.0824 37.0218C30.7679 37.0599 30.4534 37.043 30.1556 36.9711C29.8118 36.8865 29.4847 36.7257 29.1953 36.5015C28.6543 36.0786 28.3105 35.4695 28.2266 34.7842C28.1385 34.099 28.323 33.4222 28.7424 32.8766ZM70.4264 56.1745C67.1722 63.9574 60.6093 69.8411 52.4193 72.3198C47.5421 73.796 42.4512 73.906 37.6369 72.7216C34.4624 71.9434 31.4053 70.5983 28.6082 68.716C28.0966 68.3734 27.7527 67.8362 27.6395 67.2059C27.5011 66.4573 27.694 65.6494 28.1595 64.9853C29.275 63.4075 31.7408 59.165 30.5708 53.8989C29.7279 50.0835 27.1446 46.6405 22.8924 43.6627L22.5988 43.4554L25.505 37.4363L25.9159 38.0074C26.2556 38.4811 26.6498 38.8956 27.0859 39.2382C29.6985 41.2855 33.4727 40.8075 35.5024 38.1723C36.4837 36.8991 36.9157 35.313 36.7144 33.7056C36.5131 32.0983 35.7079 30.6686 34.4456 29.6788C33.3176 28.7948 31.9672 28.3549 30.5372 28.4141L29.8369 28.4437L34.5673 18.6305L34.7434 18.5755C38.9663 17.3065 47.278 15.6484 55.5351 18.8123C61.8799 21.2445 67.2184 26.6502 70.1832 33.6422C73.2781 40.9302 73.3661 49.1445 70.4264 56.1745Z" fill="url(#paint4_linear)"/>
<defs>
<linearGradient id="paint0_linear" x1="60.1335" y1="32.4979" x2="60.1335" y2="44.5993" gradientUnits="userSpaceOnUse">
<stop stop-color="#5D63FF"/>
<stop offset="1" stop-color="#6512EA"/>
</linearGradient>
<linearGradient id="paint1_linear" x1="46.6179" y1="21.902" x2="46.6179" y2="34.0042" gradientUnits="userSpaceOnUse">
<stop stop-color="#5D63FF"/>
<stop offset="1" stop-color="#6512EA"/>
</linearGradient>
<linearGradient id="paint2_linear" x1="41.9378" y1="56.1086" x2="41.9378" y2="68.2151" gradientUnits="userSpaceOnUse">
<stop stop-color="#5D63FF"/>
<stop offset="1" stop-color="#6512EA"/>
</linearGradient>
<linearGradient id="paint3_linear" x1="57.7937" y1="49.5991" x2="57.7937" y2="61.7093" gradientUnits="userSpaceOnUse">
<stop stop-color="#5D63FF"/>
<stop offset="1" stop-color="#6512EA"/>
</linearGradient>
<linearGradient id="paint4_linear" x1="38.0023" y1="0" x2="38.0023" y2="76.9989" gradientUnits="userSpaceOnUse">
<stop stop-color="#5D63FF"/>
<stop offset="1" stop-color="#6512EA"/>
</linearGradient>
</defs>
</svg>
