<svg width="74" height="77" viewBox="0 0 74 77" fill="none" xmlns="http://www.w3.org/2000/svg">
<path d="M72.2198 0H1.78377C0.797911 0 0 0.793679 0 1.76646V51.3257C0 52.2985 0.797911 53.0922 1.78377 53.0922H22.0791L12.6034 62.4688C12.2665 62.8025 12.0821 63.245 12.0821 63.7191C12.0821 64.1932 12.2665 64.6357 12.6034 64.9658C12.9332 65.2959 13.3943 65.482 13.8659 65.482H22.7032V74.2336C22.7032 75.2063 23.5047 76 24.487 76C24.9551 76 25.4161 75.8104 25.7459 75.4838L36.9947 64.3442L48.247 75.4873C48.5839 75.8209 49.0307 76.0035 49.5095 76.0035C49.9847 76.0035 50.435 75.8174 50.7684 75.4838C51.1053 75.1501 51.2897 74.7041 51.2897 74.2371V65.4855H60.127C61.1093 65.4855 61.9108 64.6918 61.9108 63.7191C61.9108 63.2485 61.7264 62.806 61.3895 62.4724L51.9174 53.0957H72.2127C73.195 53.0957 73.9965 52.3055 73.9965 51.3292V1.76646C74 0.793679 73.2021 0 72.2198 0ZM24.4905 61.9456H18.1711L24.6608 55.5189C24.7636 55.8244 24.8842 56.1194 25.0118 56.3968C25.0899 56.597 25.1572 56.7515 25.2175 56.8639C25.3736 57.194 25.5509 57.5171 25.7282 57.7875C25.8913 58.0966 26.0828 58.3951 26.2743 58.6479C26.4729 58.9429 26.6928 59.2309 26.8985 59.4803C26.9694 59.5751 27.0474 59.6629 27.0474 59.6629C27.2637 59.9192 27.5049 60.1756 27.7886 60.453C28.1042 60.7621 28.3418 60.9798 28.4836 61.0922C28.5723 61.1765 28.668 61.2573 28.7425 61.3064C28.9943 61.5171 29.2638 61.7173 29.5156 61.8824C29.8064 62.0966 30.1114 62.2968 30.4199 62.4724C30.7284 62.655 31.0618 62.8271 31.3774 62.9745C31.5263 63.0483 31.6824 63.115 31.8029 63.1607C32.1221 63.3082 32.4448 63.4346 32.7711 63.5435L26.2708 69.9737V63.7155C26.2743 62.7393 25.4729 61.9456 24.4905 61.9456ZM32.232 59.4381C32.0157 59.3152 31.8065 59.1782 31.5866 59.0167C31.3845 58.8832 31.1859 58.7357 31.0015 58.5812C30.9447 58.5321 30.888 58.4899 30.8809 58.4899C30.7036 58.3389 30.5192 58.1703 30.3029 57.9596C30.1043 57.763 29.9305 57.5803 29.7887 57.4188C29.7567 57.3696 29.7213 57.324 29.6823 57.2783C29.505 57.0676 29.3383 56.8499 29.1681 56.6005C29.0369 56.4249 28.9163 56.2353 28.7993 56.0176C28.6645 55.7998 28.5368 55.5716 28.4234 55.3257C28.3985 55.2731 28.3773 55.2239 28.3382 55.1361L28.285 55.0062C28.1503 54.7112 28.0368 54.4056 27.934 54.0685C27.9056 53.9877 27.8808 53.9069 27.8559 53.8016L27.7886 53.5487C27.7283 53.2818 27.668 53.0325 27.6325 52.7831C27.59 52.4987 27.5581 52.1932 27.5332 51.8455C27.5226 51.6839 27.5226 51.5119 27.5226 51.3257C27.5226 46.1493 31.7746 41.9421 36.9982 41.9421C42.2219 41.9421 46.4739 46.1528 46.4739 51.3468C46.4739 51.5154 46.4739 51.6839 46.4668 51.8279C46.4419 52.1616 46.41 52.4776 46.371 52.7621C46.3356 53.0009 46.2824 53.2327 46.2327 53.4504L46.1476 53.7805C46.1228 53.8788 46.0944 53.9807 46.0412 54.1387C45.949 54.4513 45.8284 54.7638 45.683 55.0799L45.6547 55.1431C45.6299 55.1993 45.605 55.2625 45.5731 55.3292L45.5235 55.4276C45.4206 55.6313 45.3142 55.8455 45.1901 56.0457C45.0695 56.2564 44.9312 56.4636 44.7717 56.6778C44.6369 56.8815 44.488 57.0746 44.3284 57.2608C44.2894 57.3064 44.2539 57.3521 44.2291 57.3872C44.0801 57.5593 43.9135 57.7384 43.7042 57.9456C43.5021 58.1457 43.3177 58.3143 43.1616 58.4513C43.1085 58.4864 43.0624 58.5215 43.0163 58.5601C42.7999 58.7357 42.5801 58.9008 42.3318 59.0659C42.1581 59.1923 41.9736 59.3117 41.7821 59.4206C41.5658 59.547 41.3318 59.6699 41.0374 59.8069C40.9878 59.8314 40.9346 59.8525 40.8495 59.8876L40.7147 59.9438C40.4168 60.0773 40.1083 60.1896 39.7643 60.288C39.6792 60.3196 39.5941 60.3407 39.4948 60.3687L39.2856 60.4249C39.009 60.4882 38.7324 60.5443 38.4664 60.59C38.1827 60.6321 37.8706 60.6637 37.5053 60.6883C37.3848 60.6989 37.2642 60.6989 37.1365 60.6989H36.9982H36.9131C36.7642 60.6989 36.6188 60.6989 36.4947 60.6918C36.1542 60.6673 35.8351 60.6357 35.5478 60.597C35.3067 60.5619 35.0762 60.5092 34.8527 60.4601L34.5123 60.3723C34.413 60.3477 34.3102 60.3196 34.1541 60.2669C33.8314 60.1721 33.5229 60.0597 33.2037 59.9122L33.1647 59.8982C33.0973 59.8736 33.03 59.8455 32.9519 59.8069L32.842 59.7542C32.6505 59.6664 32.4306 59.5575 32.232 59.4381ZM42.1297 63.1923C42.2999 63.1256 42.4666 63.0553 42.5978 62.9886C42.9276 62.8306 43.2645 62.6585 43.5907 62.4759C43.8744 62.3143 44.1546 62.1317 44.3957 61.9561C44.6936 61.7594 44.988 61.5417 45.2291 61.3415C45.3036 61.2889 45.371 61.2362 45.4206 61.1905C45.6795 60.9728 45.9419 60.734 46.2185 60.4565C46.5377 60.1405 46.7505 59.9087 46.8639 59.7682C46.9491 59.6804 47.0306 59.5856 47.0838 59.5119C47.2931 59.2625 47.4952 58.9956 47.6619 58.7463C47.8782 58.4583 48.0803 58.1563 48.2576 57.8507C48.442 57.5417 48.6194 57.2151 48.7648 56.9061C48.857 56.727 48.9314 56.5479 48.9527 56.4846C49.1016 56.1686 49.2293 55.8455 49.3392 55.5259L55.8289 61.9561H49.513C48.5307 61.9561 47.7292 62.7498 47.7292 63.7226V69.9772L41.2396 63.5505C41.5445 63.4381 41.846 63.3187 42.1297 63.1923ZM49.4811 47.5751C49.4421 47.4486 49.3995 47.3292 49.3534 47.2063L49.2861 47.0237C49.2151 46.82 49.1407 46.6163 49.0626 46.4302C49.013 46.3073 48.9562 46.1844 48.8995 46.065L48.786 45.8262C48.708 45.6576 48.6264 45.489 48.5413 45.3275C48.4669 45.187 48.3853 45.05 48.3037 44.9166L48.2364 44.8042C48.1335 44.6286 48.0307 44.4565 47.9172 44.288C47.8179 44.1405 47.7151 43.993 47.5874 43.8209L47.481 43.6769C47.3888 43.554 47.2966 43.4311 47.2009 43.3082C47.0625 43.1361 46.9597 43.0167 46.8356 42.8762C46.6937 42.7147 46.5519 42.5566 46.4029 42.4021C46.2505 42.2441 46.137 42.1282 45.988 41.9947L45.8568 41.8753C45.7469 41.777 45.6299 41.6681 45.527 41.5803C45.3816 41.4469 45.2327 41.331 45.0731 41.2046C44.9064 41.0781 44.7362 40.9517 44.5589 40.8218C44.4064 40.7129 44.2539 40.6076 44.0908 40.5022C43.9064 40.3863 43.7184 40.2739 43.5305 40.1651L43.4773 40.1335C43.3354 40.0527 43.19 39.9684 43.0411 39.8911C42.8425 39.7893 42.6368 39.6945 42.4382 39.6032L42.3992 39.5856C42.2432 39.5119 42.0871 39.4416 41.9311 39.3784C41.7644 39.3082 41.5906 39.2485 41.3992 39.1817L41.1367 39.0904C41.0126 39.0483 40.892 39.0026 40.7679 38.9675C40.5587 38.9043 40.3282 38.8446 40.0516 38.7849L39.8955 38.7463C39.7821 38.7182 39.6686 38.6901 39.5551 38.669C39.3388 38.6269 39.1154 38.5953 38.8955 38.5637L38.5834 38.518C38.4877 38.504 38.3919 38.4864 38.2962 38.4794C37.4167 38.3951 36.594 38.3951 35.7109 38.4794C35.6152 38.4899 35.5194 38.504 35.3953 38.525L35.2393 38.5496C34.9946 38.5812 34.718 38.6163 34.4591 38.6725C34.3421 38.6936 34.2286 38.7217 34.1151 38.7533L33.8491 38.8165C33.6435 38.8657 33.4413 38.9148 33.2427 38.9745C33.1151 39.0132 32.9945 39.0553 32.8739 39.0975L32.6647 39.1712C32.4661 39.2414 32.264 39.3082 32.0796 39.3889C31.92 39.4522 31.7639 39.5259 31.6079 39.5997L31.576 39.6137C31.3703 39.7085 31.1682 39.7998 30.9696 39.9052C30.8206 39.9824 30.6752 40.0667 30.5334 40.1475L30.4802 40.1791C30.2887 40.288 30.1007 40.4004 29.9128 40.5198C29.7567 40.6216 29.6007 40.7305 29.4447 40.8393C29.2709 40.9658 29.1007 41.0922 28.9269 41.2221C28.778 41.338 28.6326 41.4609 28.4907 41.5839C28.3276 41.7243 28.168 41.8683 28.0084 42.0193C27.8524 42.1668 27.7354 42.2792 27.6042 42.4197C27.4729 42.5601 27.3134 42.7287 27.1822 42.8797C27.0509 43.0237 26.9304 43.1712 26.8098 43.3222C26.6892 43.4697 26.5509 43.6594 26.3842 43.8841C26.285 44.0211 26.1857 44.1616 26.0899 44.302C25.98 44.4671 25.8771 44.6392 25.7778 44.8112L25.7034 44.9377C25.6218 45.0711 25.5438 45.2081 25.4693 45.345C25.3807 45.5066 25.3026 45.6752 25.2246 45.8437L25.1111 46.0825C25.0544 46.2019 24.9977 46.3248 24.948 46.4478C24.8771 46.6128 24.8168 46.7849 24.7494 46.971L24.6537 47.2309C24.6076 47.3573 24.5579 47.4838 24.5295 47.5961C24.4622 47.8174 24.4054 48.0492 24.3522 48.2774L24.2955 48.4636C24.2671 48.5689 24.2423 48.6708 24.221 48.7796C24.1678 49.0395 24.1288 49.3029 24.0969 49.5593H3.56755V3.53292H70.436V49.5593H49.9137C49.8818 49.3029 49.8428 49.0395 49.7896 48.7796C49.7683 48.6743 49.74 48.5689 49.7152 48.4636L49.6442 48.1756C49.591 47.9754 49.5414 47.7717 49.4811 47.5751Z" fill="url(#paint0_linear)"/>
<path d="M18.9127 18.7884H55.0846C56.0669 18.7884 56.8684 17.9947 56.8684 17.022C56.8684 16.0492 56.0705 15.2555 55.0846 15.2555H18.9127C17.9304 15.2555 17.1289 16.0457 17.1289 17.022C17.1289 17.9983 17.9304 18.7884 18.9127 18.7884Z" fill="#5D63FF"/>
<path d="M56.8713 30.4267C56.8713 29.454 56.0734 28.6603 55.0876 28.6603H18.9156C17.9333 28.6603 17.1318 29.454 17.1318 30.4267C17.1318 31.3995 17.9333 32.1932 18.9156 32.1932H55.0876C56.0699 32.1932 56.8713 31.3995 56.8713 30.4267Z" fill="#5D63FF"/>
<defs>
<linearGradient id="paint0_linear" x1="36.9982" y1="0" x2="36.9982" y2="76.0035" gradientUnits="userSpaceOnUse">
<stop stop-color="#5D63FF"/>
<stop offset="1" stop-color="#6512EA"/>
</linearGradient>
</defs>
</svg>
