<svg width="88" height="67" viewBox="0 0 88 67" fill="none" xmlns="http://www.w3.org/2000/svg">
<g clip-path="url(#clip0)">
<path d="M73.7192 56.2677C73.7192 55.7722 73.8355 55.2803 74.0606 54.8402L74.1544 54.6516C74.4246 54.1154 74.8598 53.6679 75.3814 53.3573V48.5052L56.7518 30.1438C56.4028 27.4959 54.129 25.5062 51.4274 25.5062C49.5701 25.5062 47.8216 26.4863 46.8385 28.0691H41.0301C39.7056 28.0691 38.6287 27.0077 38.6287 25.7022V16.7415C38.6287 14.5152 36.7901 12.7031 34.5313 12.7031H33.9122L33.4732 13.1358C31.871 14.7149 30.7941 16.9671 30.509 19.3303L20.3443 21.0721L20.0929 21.1387C18.502 21.7267 17.4326 23.2429 17.4326 24.9182V28.2651C17.4326 30.4914 19.2712 32.3035 21.53 32.3035H23.3273C24.0515 32.3035 24.7044 32.7029 25.0308 33.3427C25.1621 33.6016 25.2334 33.89 25.2334 34.1822V52.6065C25.2334 54.8328 27.072 56.645 29.3308 56.645H31.9311C34.1899 56.645 36.0284 54.8328 36.0284 52.6065V47.4845C36.0284 45.4727 37.6907 43.8344 39.7319 43.8344H42.3321C44.3733 43.8344 46.0355 45.4727 46.0355 47.4845V52.6065C46.0355 54.8328 47.8741 56.645 50.1329 56.645H52.7332C54.992 56.645 56.8306 54.8328 56.8306 52.6065V42.0778L70.7587 55.8055C70.7437 55.9608 70.7362 56.1161 70.7362 56.2714C70.7362 58.4977 71.9631 60.5539 73.9368 61.6375L75.3926 62.4326V59.0599H75.3889C74.3533 58.494 73.7192 57.4253 73.7192 56.2677ZM53.8288 52.6065C53.8288 53.2056 53.3335 53.6938 52.7257 53.6938H50.1254C49.5176 53.6938 49.0223 53.2056 49.0223 52.6065V47.4845C49.0223 43.8455 46.0205 40.887 42.3284 40.887H39.7281C36.0359 40.887 33.0342 43.8455 33.0342 47.4845V52.6065C33.0342 53.2056 32.5389 53.6938 31.9311 53.6938H29.3308C28.7229 53.6938 28.2277 53.2056 28.2277 52.6065V34.1859C28.2277 33.4425 28.0475 32.6955 27.7099 32.0261C26.8731 30.3804 25.1959 29.356 23.3273 29.356H21.53C20.9222 29.356 20.4269 28.8679 20.4269 28.2688V24.9219C20.4269 24.5114 20.667 24.1305 21.0385 23.9493L33.2593 21.8524L33.4207 21.8265V20.584C33.4207 18.8754 34.036 17.1003 35.0679 15.7948C35.4093 15.9871 35.627 16.3458 35.627 16.7415V25.7096C35.627 28.6423 38.0471 31.0276 41.0226 31.0276H46.028C46.1218 33.6053 48.1067 35.7465 50.7295 36.083L53.8213 39.1303V52.6065H53.8288ZM51.4274 33.1985C50.1029 33.1985 49.026 32.1371 49.026 30.8316C49.026 29.5262 50.1029 28.4648 51.4274 28.4648C52.7519 28.4648 53.8288 29.5262 53.8288 30.8316C53.8288 32.1371 52.7519 33.1985 51.4274 33.1985ZM71.8581 52.7249L54.2265 35.3471C54.9545 34.907 55.5623 34.3079 56.0088 33.5905L73.6403 50.9682C72.9349 51.4268 72.3271 52.0259 71.8581 52.7249Z" fill="url(#paint0_linear)"/>
<path d="M75.3818 59.0563V62.4327L78.3761 64.071V60.6946L75.3818 59.0563Z" fill="#6413EA"/>
<path d="M87.557 61.6894L82.6904 53.0061C81.7861 51.39 80.1989 50.2805 78.3941 49.944L78.3866 52.9987C79.092 53.2612 79.6924 53.7605 80.0713 54.4299L84.9379 63.1169C84.983 63.1983 85.0055 63.2907 85.0055 63.3869C85.0055 63.5755 84.8967 63.7493 84.7166 63.8528C84.5364 63.9564 84.3263 63.9675 84.1612 63.875L78.3679 60.6835L78.3604 64.0599L82.6979 66.449C83.2269 66.7411 83.8235 66.8964 84.4314 66.8964C86.3938 66.9001 87.996 65.3321 87.9997 63.3943C88.0035 62.8026 87.8496 62.2108 87.557 61.6894Z" fill="#6415EB"/>
<path d="M75.3814 64.0489H2.99424V5.51399H9.09905V6.60126C9.09905 7.41486 9.77069 8.07683 10.5962 8.07683C11.4217 8.07683 12.0933 7.41486 12.0933 6.60126V5.51399H14.2996V6.60126C14.2996 7.41486 14.9712 8.07683 15.7967 8.07683C16.6222 8.07683 17.2938 7.41486 17.2938 6.60126V5.51399H19.5001V6.60126C19.5001 7.41486 20.1717 8.07683 20.9972 8.07683C21.8227 8.07683 22.4944 7.41486 22.4944 6.60126V5.51399H24.7006V6.60126C24.7006 7.41486 25.3723 8.07683 26.1978 8.07683C27.0232 8.07683 27.6949 7.41486 27.6949 6.60126V5.51399H29.9012V6.60126C29.9012 7.41486 30.5728 8.07683 31.3983 8.07683C32.2238 8.07683 32.8954 7.41486 32.8954 6.60126V5.51399H35.1017V6.60126C35.1017 7.41486 35.7733 8.07683 36.5988 8.07683C37.4243 8.07683 38.0959 7.41486 38.0959 6.60126V5.51399H40.3022V6.60126C40.3022 7.41486 40.9739 8.07683 41.7993 8.07683C42.6248 8.07683 43.2965 7.41486 43.2965 6.60126V5.51399H45.5027V6.60126C45.5027 7.41486 46.1744 8.07683 46.9999 8.07683C47.8254 8.07683 48.497 7.41486 48.497 6.60126V5.51399H50.7033V6.60126C50.7033 7.41486 51.3749 8.07683 52.2004 8.07683C53.0259 8.07683 53.6975 7.41486 53.6975 6.60126V5.51399H55.9038V6.60126C55.9038 7.41486 56.5754 8.07683 57.4009 8.07683C58.2264 8.07683 58.898 7.41486 58.898 6.60126V5.51399H61.1043V6.60126C61.1043 7.41486 61.776 8.07683 62.6015 8.07683C63.4269 8.07683 64.0986 7.41486 64.0986 6.60126V5.51399H66.3049V6.60126C66.3049 7.41486 66.9765 8.07683 67.802 8.07683C68.6275 8.07683 69.2991 7.41486 69.2991 6.60126V5.51399H75.4039V48.5128V53.3648C75.479 53.3204 75.5502 53.2686 75.629 53.2317L75.8129 53.1392C76.2632 52.921 76.7622 52.8027 77.2575 52.8027C77.6552 52.8027 78.0379 52.8803 78.3982 53.0135V49.9588V4.03842C78.3982 3.22482 77.7265 2.56284 76.901 2.56284H69.2991V1.47558C69.2991 0.661975 68.6275 0 67.802 0C66.9765 0 66.3049 0.661975 66.3049 1.47558V2.56284H64.0986V1.47558C64.0986 0.661975 63.4269 0 62.6015 0C61.776 0 61.1043 0.661975 61.1043 1.47558V2.56284H58.898V1.47558C58.898 0.661975 58.2264 0 57.4009 0C56.5754 0 55.9038 0.661975 55.9038 1.47558V2.56284H53.6975V1.47558C53.6975 0.661975 53.0259 0 52.2004 0C51.3749 0 50.7033 0.661975 50.7033 1.47558V2.56284H48.497V1.47558C48.497 0.661975 47.8254 0 46.9999 0C46.1744 0 45.5027 0.661975 45.5027 1.47558V2.56284H43.2965V1.47558C43.2965 0.661975 42.6248 0 41.7993 0C40.9739 0 40.3022 0.661975 40.3022 1.47558V2.56284H38.0959V1.47558C38.0959 0.661975 37.4243 0 36.5988 0C35.7733 0 35.1017 0.661975 35.1017 1.47558V2.56284H32.8954V1.47558C32.8954 0.661975 32.2238 0 31.3983 0C30.5728 0 29.9012 0.661975 29.9012 1.47558V2.56284H27.6949V1.47558C27.6874 0.661975 27.0157 0 26.1903 0C25.3648 0 24.6931 0.661975 24.6931 1.47558V2.56284H22.4868V1.47558C22.4868 0.661975 21.8152 0 20.9897 0C20.1642 0 19.4926 0.661975 19.4926 1.47558V2.56284H17.2863V1.47558C17.2863 0.661975 16.6147 0 15.7892 0C14.9637 0 14.2958 0.661975 14.2958 1.47558V2.56284H12.0895V1.47558C12.0895 0.661975 11.4179 0 10.5924 0C9.76694 0 9.0953 0.661975 9.0953 1.47558V2.56284H1.49712C0.671641 2.56284 0 3.22482 0 4.03842V65.5244C0 66.338 0.671641 67 1.49712 67H76.8785C77.704 67 78.3756 66.338 78.3756 65.5244V64.071L75.3814 62.4327V64.0489Z" fill="url(#paint1_linear)"/>
</g>
<defs>
<linearGradient id="paint0_linear" x1="46.4126" y1="12.7031" x2="46.4126" y2="62.4326" gradientUnits="userSpaceOnUse">
<stop stop-color="#5D63FF"/>
<stop offset="1" stop-color="#6512EA"/>
</linearGradient>
<linearGradient id="paint1_linear" x1="39.1991" y1="0" x2="39.1991" y2="67" gradientUnits="userSpaceOnUse">
<stop stop-color="#5D63FF"/>
<stop offset="1" stop-color="#6512EA"/>
</linearGradient>
<clipPath id="clip0">
<rect width="88" height="67" fill="white"/>
</clipPath>
</defs>
</svg>
